999
DXF created by Inkscape
  0
SECTION
  2
HEADER
  9
$ACADVER
  1
AC1014
  9
$HANDSEED
  5
FFFF
  9
$MEASUREMENT
 70
     1
  0
ENDSEC
  0
SECTION
  2
TABLES
  0
TABLE
  2
VPORT
  5
8
330
0
100
AcDbSymbolTable
 70
     4
  0
VPORT
  5
2E
330
8
100
AcDbSymbolTableRecord
100
AcDbViewportTableRecord
  2
*ACTIVE
 70
     0
 10
0.0
 20
0.0
 11
1.0
 21
1.0
 12
210.0
 22
148.5
 13
0.0
 23
0.0
 14
10.0
 24
10.0
 15
10.0
 25
10.0
 16
0.0
 26
0.0
 36
1.0
 17
0.0
 27
0.0
 37
0.0
 40
341.0
 41
1.24
 42
50.0
 43
0.0
 44
0.0
 50
0.0
 51
0.0
 71
     0
 72
   100
 73
     1
 74
     3
 75
     0
 76
     0
 77
     0
 78
     0
  0
ENDTAB
  0
TABLE
  2
LTYPE
  5
5
330
0
100
AcDbSymbolTable
 70
     1
  0
LTYPE
  5
14
330
5
100
AcDbSymbolTableRecord
100
AcDbLinetypeTableRecord
  2
BYBLOCK
 70
     0
  3

 72
    65
 73
     0
 40
0.0
  0
LTYPE
  5
15
330
5
100
AcDbSymbolTableRecord
100
AcDbLinetypeTableRecord
  2
BYLAYER
 70
     0
  3

 72
    65
 73
     0
 40
0.0
  0
LTYPE
  5
16
330
5
100
AcDbSymbolTableRecord
100
AcDbLinetypeTableRecord
  2
CONTINUOUS
 70
     0
  3
Solid line
 72
    65
 73
     0
 40
0.0
  0
ENDTAB
  0
TABLE
  2
LAYER
  5
2
100
AcDbSymbolTable
 70
25
  0
LAYER
  5
50
100
AcDbSymbolTableRecord
100
AcDbLayerTableRecord
  2
0
 70
0
  6
CONTINUOUS
  0
LAYER
  5
51
100
AcDbSymbolTableRecord
100
AcDbLayerTableRecord
  2
BLACK
 70
0
  6
CONTINUOUS
  0
LAYER
  5
52
100
AcDbSymbolTableRecord
100
AcDbLayerTableRecord
  2
BLUE
 70
0
  6
CONTINUOUS
  0
LAYER
  5
53
100
AcDbSymbolTableRecord
100
AcDbLayerTableRecord
  2
GREEN
 70
0
  6
CONTINUOUS
  0
LAYER
  5
54
100
AcDbSymbolTableRecord
100
AcDbLayerTableRecord
  2
CYAN
 70
0
  6
CONTINUOUS
  0
LAYER
  5
55
100
AcDbSymbolTableRecord
100
AcDbLayerTableRecord
  2
RED
 70
0
  6
CONTINUOUS
  0
LAYER
  5
56
100
AcDbSymbolTableRecord
100
AcDbLayerTableRecord
  2
MAGENTA
 70
0
  6
CONTINUOUS
  0
LAYER
  5
57
100
AcDbSymbolTableRecord
100
AcDbLayerTableRecord
  2
BROWN
 70
0
  6
CONTINUOUS
  0
LAYER
  5
58
100
AcDbSymbolTableRecord
100
AcDbLayerTableRecord
  2
GRAY
 70
0
  6
CONTINUOUS
  0
LAYER
  5
59
100
AcDbSymbolTableRecord
100
AcDbLayerTableRecord
  2
DARKGRAY
 70
0
  6
CONTINUOUS
  0
LAYER
  5
5a
100
AcDbSymbolTableRecord
100
AcDbLayerTableRecord
  2
LIGHTBLUE
 70
0
  6
CONTINUOUS
  0
LAYER
  5
5b
100
AcDbSymbolTableRecord
100
AcDbLayerTableRecord
  2
LIGHTGREEN
 70
0
  6
CONTINUOUS
  0
LAYER
  5
5c
100
AcDbSymbolTableRecord
100
AcDbLayerTableRecord
  2
LIGHTCYAN
 70
0
  6
CONTINUOUS
  0
LAYER
  5
5d
100
AcDbSymbolTableRecord
100
AcDbLayerTableRecord
  2
LIGHTRED
 70
0
  6
CONTINUOUS
  0
LAYER
  5
5e
100
AcDbSymbolTableRecord
100
AcDbLayerTableRecord
  2
LIGHTMAGENTA
 70
0
  6
CONTINUOUS
  0
LAYER
  5
5f
100
AcDbSymbolTableRecord
100
AcDbLayerTableRecord
  2
YELLOW
 70
0
  6
CONTINUOUS
  0
LAYER
  5
60
100
AcDbSymbolTableRecord
100
AcDbLayerTableRecord
  2
WHITE
 70
0
  6
CONTINUOUS
  0
LAYER
  5
61
100
AcDbSymbolTableRecord
100
AcDbLayerTableRecord
  2
DARKDARKGRAY
 70
0
  6
CONTINUOUS
  0
LAYER
  5
62
100
AcDbSymbolTableRecord
100
AcDbLayerTableRecord
  2
DARKBLUE
 70
0
  6
CONTINUOUS
  0
LAYER
  5
63
100
AcDbSymbolTableRecord
100
AcDbLayerTableRecord
  2
DARKGREEN
 70
0
  6
CONTINUOUS
  0
LAYER
  5
64
100
AcDbSymbolTableRecord
100
AcDbLayerTableRecord
  2
DARKCYAN
 70
0
  6
CONTINUOUS
  0
LAYER
  5
65
100
AcDbSymbolTableRecord
100
AcDbLayerTableRecord
  2
DARKRED
 70
0
  6
CONTINUOUS
  0
LAYER
  5
66
100
AcDbSymbolTableRecord
100
AcDbLayerTableRecord
  2
DARKMAGENTA
 70
0
  6
CONTINUOUS
  0
LAYER
  5
67
100
AcDbSymbolTableRecord
100
AcDbLayerTableRecord
  2
DARKBROWN
 70
0
  6
CONTINUOUS
  0
LAYER
  5
68
100
AcDbSymbolTableRecord
100
AcDbLayerTableRecord
  2
LIGHTYELLOW
 70
0
  6
CONTINUOUS
  0
ENDTAB
  0
TABLE
  2
STYLE
  5
3
330
0
100
AcDbSymbolTable
 70
     1
  0
STYLE
  5
11
330
3
100
AcDbSymbolTableRecord
100
AcDbTextStyleTableRecord
  2
STANDARD
 70
     0
 40
0.0
 41
1.0
 50
0.0
 71
     0
 42
2.5
  3
txt
  4

  0
ENDTAB
  0
TABLE
  2
VIEW
  5
6
330
0
100
AcDbSymbolTable
 70
     0
  0
ENDTAB
  0
TABLE
  2
UCS
  5
7
330
0
100
AcDbSymbolTable
 70
     0
  0
ENDTAB
  0
TABLE
  2
APPID
  5
9
330
0
100
AcDbSymbolTable
 70
     2
  0
APPID
  5
12
330
9
100
AcDbSymbolTableRecord
100
AcDbRegAppTableRecord
  2
ACAD
 70
     0
  0
ENDTAB
  0
TABLE
  2
DIMSTYLE
  5
A
330
0
100
AcDbSymbolTable
 70
     1
  0
DIMSTYLE
105
27
330
A
100
AcDbSymbolTableRecord
100
AcDbDimStyleTableRecord
  2
ISO-25
 70
     0
  3

  4

  5

  6

  7

 40
1.0
 41
2.5
 42
0.625
 43
3.75
 44
1.25
 45
0.0
 46
0.0
 47
0.0
 48
0.0
140
2.5
141
2.5
142
0.0
143
0.03937007874016
144
1.0
145
0.0
146
1.0
147
0.625
 71
     0
 72
     0
 73
     0
 74
     0
 75
     0
 76
     0
 77
     1
 78
     8
170
     0
171
     3
172
     1
173
     0
174
     0
175
     0
176
     0
177
     0
178
     0
270
     2
271
     2
272
     2
273
     2
274
     3
340
11
275
     0
280
     0
281
     0
282
     0
283
     0
284
     8
285
     0
286
     0
287
     3
288
     0
  0
ENDTAB
  0
TABLE
  2
BLOCK_RECORD
  5
1
330
0
100
AcDbSymbolTable
 70
     1
  0
BLOCK_RECORD
  5
1F
330
1
100
AcDbSymbolTableRecord
100
AcDbBlockTableRecord
  2
*MODEL_SPACE
  0
BLOCK_RECORD
  5
1B
330
1
100
AcDbSymbolTableRecord
100
AcDbBlockTableRecord
  2
*PAPER_SPACE
  0
ENDTAB
  0
ENDSEC
  0
SECTION
  2
BLOCKS
  0
BLOCK
  5
20
330
1F
100
AcDbEntity
  8
0
100
AcDbBlockBegin
  2
*MODEL_SPACE
 70
     0
 10
0.0
 20
0.0
 30
0.0
  3
*MODEL_SPACE
  1

  0
ENDBLK
  5
21
330
1F
100
AcDbEntity
  8
0
100
AcDbBlockEnd
  0
BLOCK
  5
1C
330
1B
100
AcDbEntity
 67
     1
  8
0
100
AcDbBlockBegin
  2
*PAPER_SPACE
  1

  0
ENDBLK
  5
1D
330
1B
100
AcDbEntity
 67
     1
  8
0
100
AcDbBlockEnd
  0
ENDSEC
  0
SECTION
  2
ENTITIES
  0
LWPOLYLINE
  5
100
100
AcDbEntity
  8
BLACK
 62
1
100
AcDbPolyline
 90
2
 70
0
 10
-6.985000
 20
431.673000
 30
0.0
 10
-9.525000
 20
429.133000
 30
0.0
  0
LWPOLYLINE
  5
101
100
AcDbEntity
  8
BLACK
 62
1
100
AcDbPolyline
 90
2
 70
0
 10
-9.525000
 20
306.705000
 30
0.0
 10
-6.985000
 20
304.165000
 30
0.0
  0
LWPOLYLINE
  5
102
100
AcDbEntity
  8
BLACK
 62
1
100
AcDbPolyline
 90
2
 70
0
 10
271.510232
 20
304.165000
 30
0.0
 10
274.050232
 20
306.705000
 30
0.0
  0
LWPOLYLINE
  5
103
100
AcDbEntity
  8
BLACK
 62
1
100
AcDbPolyline
 90
2
 70
0
 10
270.157025
 20
429.132999
 30
0.0
 10
267.617025
 20
431.672999
 30
0.0
  0
LWPOLYLINE
  5
104
100
AcDbEntity
  8
BLACK
 62
1
100
AcDbPolyline
 90
2
 70
0
 10
48.260000
 20
404.495000
 30
0.0
 10
46.990000
 20
404.495000
 30
0.0
  0
SPLINE
  5
105
100
AcDbEntity
  8
BLACK
 62
1
100
AcDbSpline
 70
8
 71
3
 72
8
 73
4
 74
0
 40
0
 40
0
 40
0
 40
0
 40
1
 40
1
 40
1
 40
1
 10
46.990000
 20
407.543000
 30
0.0
 10
46.585810
 20
407.543000
 30
0.0
 10
46.198175
 20
407.382436
 30
0.0
 10
45.912369
 20
407.096631
 30
0.0
  0
SPLINE
  5
106
100
AcDbEntity
  8
BLACK
 62
1
100
AcDbSpline
 70
8
 71
3
 72
8
 73
4
 74
0
 40
0
 40
0
 40
0
 40
0
 40
1
 40
1
 40
1
 40
1
 10
45.912369
 20
407.096631
 30
0.0
 10
45.626564
 20
406.810825
 30
0.0
 10
45.466000
 20
406.423190
 30
0.0
 10
45.466000
 20
406.019000
 30
0.0
  0
SPLINE
  5
107
100
AcDbEntity
  8
BLACK
 62
1
100
AcDbSpline
 70
8
 71
3
 72
8
 73
4
 74
0
 40
0
 40
0
 40
0
 40
0
 40
1
 40
1
 40
1
 40
1
 10
45.466000
 20
406.019000
 30
0.0
 10
45.466000
 20
405.614810
 30
0.0
 10
45.626564
 20
405.227175
 30
0.0
 10
45.912369
 20
404.941369
 30
0.0
  0
SPLINE
  5
108
100
AcDbEntity
  8
BLACK
 62
1
100
AcDbSpline
 70
8
 71
3
 72
8
 73
4
 74
0
 40
0
 40
0
 40
0
 40
0
 40
1
 40
1
 40
1
 40
1
 10
45.912369
 20
404.941369
 30
0.0
 10
46.198175
 20
404.655564
 30
0.0
 10
46.585810
 20
404.495000
 30
0.0
 10
46.990000
 20
404.495000
 30
0.0
  0
SPLINE
  5
109
100
AcDbEntity
  8
BLACK
 62
1
100
AcDbSpline
 70
8
 71
3
 72
8
 73
4
 74
0
 40
0
 40
0
 40
0
 40
0
 40
1
 40
1
 40
1
 40
1
 10
48.260000
 20
404.495000
 30
0.0
 10
48.664190
 20
404.495000
 30
0.0
 10
49.051825
 20
404.655564
 30
0.0
 10
49.337631
 20
404.941369
 30
0.0
  0
SPLINE
  5
10a
100
AcDbEntity
  8
BLACK
 62
1
100
AcDbSpline
 70
8
 71
3
 72
8
 73
4
 74
0
 40
0
 40
0
 40
0
 40
0
 40
1
 40
1
 40
1
 40
1
 10
49.337631
 20
404.941369
 30
0.0
 10
49.623436
 20
405.227175
 30
0.0
 10
49.784000
 20
405.614810
 30
0.0
 10
49.784000
 20
406.019000
 30
0.0
  0
SPLINE
  5
10b
100
AcDbEntity
  8
BLACK
 62
1
100
AcDbSpline
 70
8
 71
3
 72
8
 73
4
 74
0
 40
0
 40
0
 40
0
 40
0
 40
1
 40
1
 40
1
 40
1
 10
49.784000
 20
406.019000
 30
0.0
 10
49.784000
 20
406.423190
 30
0.0
 10
49.623436
 20
406.810825
 30
0.0
 10
49.337631
 20
407.096631
 30
0.0
  0
SPLINE
  5
10c
100
AcDbEntity
  8
BLACK
 62
1
100
AcDbSpline
 70
8
 71
3
 72
8
 73
4
 74
0
 40
0
 40
0
 40
0
 40
0
 40
1
 40
1
 40
1
 40
1
 10
49.337631
 20
407.096631
 30
0.0
 10
49.051825
 20
407.382436
 30
0.0
 10
48.664190
 20
407.543000
 30
0.0
 10
48.260000
 20
407.543000
 30
0.0
  0
SPLINE
  5
10d
100
AcDbEntity
  8
BLACK
 62
1
100
AcDbSpline
 70
8
 71
3
 72
8
 73
4
 74
0
 40
0
 40
0
 40
0
 40
0
 40
1
 40
1
 40
1
 40
1
 10
323.215000
 20
406.019000
 30
0.0
 10
323.215000
 20
407.380182
 30
0.0
 10
322.488818
 20
408.637966
 30
0.0
 10
321.310000
 20
409.318557
 30
0.0
  0
SPLINE
  5
10e
100
AcDbEntity
  8
BLACK
 62
1
100
AcDbSpline
 70
8
 71
3
 72
8
 73
4
 74
0
 40
0
 40
0
 40
0
 40
0
 40
1
 40
1
 40
1
 40
1
 10
321.310000
 20
409.318557
 30
0.0
 10
320.131182
 20
409.999148
 30
0.0
 10
318.678818
 20
409.999148
 30
0.0
 10
317.500000
 20
409.318557
 30
0.0
  0
SPLINE
  5
10f
100
AcDbEntity
  8
BLACK
 62
1
100
AcDbSpline
 70
8
 71
3
 72
8
 73
4
 74
0
 40
0
 40
0
 40
0
 40
0
 40
1
 40
1
 40
1
 40
1
 10
317.500000
 20
409.318557
 30
0.0
 10
316.321182
 20
408.637966
 30
0.0
 10
315.595000
 20
407.380182
 30
0.0
 10
315.595000
 20
406.019000
 30
0.0
  0
SPLINE
  5
110
100
AcDbEntity
  8
BLACK
 62
1
100
AcDbSpline
 70
8
 71
3
 72
8
 73
4
 74
0
 40
0
 40
0
 40
0
 40
0
 40
1
 40
1
 40
1
 40
1
 10
315.595000
 20
406.019000
 30
0.0
 10
315.595000
 20
404.657818
 30
0.0
 10
316.321182
 20
403.400034
 30
0.0
 10
317.500000
 20
402.719443
 30
0.0
  0
SPLINE
  5
111
100
AcDbEntity
  8
BLACK
 62
1
100
AcDbSpline
 70
8
 71
3
 72
8
 73
4
 74
0
 40
0
 40
0
 40
0
 40
0
 40
1
 40
1
 40
1
 40
1
 10
317.500000
 20
402.719443
 30
0.0
 10
318.678818
 20
402.038852
 30
0.0
 10
320.131182
 20
402.038852
 30
0.0
 10
321.310000
 20
402.719443
 30
0.0
  0
SPLINE
  5
112
100
AcDbEntity
  8
BLACK
 62
1
100
AcDbSpline
 70
8
 71
3
 72
8
 73
4
 74
0
 40
0
 40
0
 40
0
 40
0
 40
1
 40
1
 40
1
 40
1
 10
321.310000
 20
402.719443
 30
0.0
 10
322.488818
 20
403.400034
 30
0.0
 10
323.215000
 20
404.657818
 30
0.0
 10
323.215000
 20
406.019000
 30
0.0
  0
LWPOLYLINE
  5
113
100
AcDbEntity
  8
BLACK
 62
1
100
AcDbPolyline
 90
2
 70
0
 10
46.990000
 20
407.543000
 30
0.0
 10
48.260000
 20
407.543000
 30
0.0
  0
SPLINE
  5
114
100
AcDbEntity
  8
BLACK
 62
1
100
AcDbSpline
 70
8
 71
3
 72
8
 73
4
 74
0
 40
0
 40
0
 40
0
 40
0
 40
1
 40
1
 40
1
 40
1
 10
304.165000
 20
406.019000
 30
0.0
 10
304.165000
 20
407.380182
 30
0.0
 10
303.438818
 20
408.637966
 30
0.0
 10
302.260000
 20
409.318557
 30
0.0
  0
SPLINE
  5
115
100
AcDbEntity
  8
BLACK
 62
1
100
AcDbSpline
 70
8
 71
3
 72
8
 73
4
 74
0
 40
0
 40
0
 40
0
 40
0
 40
1
 40
1
 40
1
 40
1
 10
302.260000
 20
409.318557
 30
0.0
 10
301.081182
 20
409.999148
 30
0.0
 10
299.628818
 20
409.999148
 30
0.0
 10
298.450000
 20
409.318557
 30
0.0
  0
SPLINE
  5
116
100
AcDbEntity
  8
BLACK
 62
1
100
AcDbSpline
 70
8
 71
3
 72
8
 73
4
 74
0
 40
0
 40
0
 40
0
 40
0
 40
1
 40
1
 40
1
 40
1
 10
298.450000
 20
409.318557
 30
0.0
 10
297.271182
 20
408.637966
 30
0.0
 10
296.545000
 20
407.380182
 30
0.0
 10
296.545000
 20
406.019000
 30
0.0
  0
SPLINE
  5
117
100
AcDbEntity
  8
BLACK
 62
1
100
AcDbSpline
 70
8
 71
3
 72
8
 73
4
 74
0
 40
0
 40
0
 40
0
 40
0
 40
1
 40
1
 40
1
 40
1
 10
296.545000
 20
406.019000
 30
0.0
 10
296.545000
 20
404.657818
 30
0.0
 10
297.271182
 20
403.400034
 30
0.0
 10
298.450000
 20
402.719443
 30
0.0
  0
SPLINE
  5
118
100
AcDbEntity
  8
BLACK
 62
1
100
AcDbSpline
 70
8
 71
3
 72
8
 73
4
 74
0
 40
0
 40
0
 40
0
 40
0
 40
1
 40
1
 40
1
 40
1
 10
298.450000
 20
402.719443
 30
0.0
 10
299.628818
 20
402.038852
 30
0.0
 10
301.081182
 20
402.038852
 30
0.0
 10
302.260000
 20
402.719443
 30
0.0
  0
SPLINE
  5
119
100
AcDbEntity
  8
BLACK
 62
1
100
AcDbSpline
 70
8
 71
3
 72
8
 73
4
 74
0
 40
0
 40
0
 40
0
 40
0
 40
1
 40
1
 40
1
 40
1
 10
302.260000
 20
402.719443
 30
0.0
 10
303.438818
 20
403.400034
 30
0.0
 10
304.165000
 20
404.657818
 30
0.0
 10
304.165000
 20
406.019000
 30
0.0
  0
LWPOLYLINE
  5
11a
100
AcDbEntity
  8
BLACK
 62
1
100
AcDbPolyline
 90
2
 70
0
 10
323.215000
 20
406.019000
 30
0.0
 10
323.215000
 20
406.019000
 30
0.0
  0
SPLINE
  5
11b
100
AcDbEntity
  8
BLACK
 62
1
100
AcDbSpline
 70
8
 71
3
 72
8
 73
4
 74
0
 40
0
 40
0
 40
0
 40
0
 40
1
 40
1
 40
1
 40
1
 10
167.513000
 20
406.019000
 30
0.0
 10
167.513000
 20
407.107946
 30
0.0
 10
166.932055
 20
408.114173
 30
0.0
 10
165.989000
 20
408.658646
 30
0.0
  0
SPLINE
  5
11c
100
AcDbEntity
  8
BLACK
 62
1
100
AcDbSpline
 70
8
 71
3
 72
8
 73
4
 74
0
 40
0
 40
0
 40
0
 40
0
 40
1
 40
1
 40
1
 40
1
 10
165.989000
 20
408.658646
 30
0.0
 10
165.045946
 20
409.203118
 30
0.0
 10
163.884054
 20
409.203118
 30
0.0
 10
162.941000
 20
408.658646
 30
0.0
  0
SPLINE
  5
11d
100
AcDbEntity
  8
BLACK
 62
1
100
AcDbSpline
 70
8
 71
3
 72
8
 73
4
 74
0
 40
0
 40
0
 40
0
 40
0
 40
1
 40
1
 40
1
 40
1
 10
162.941000
 20
408.658646
 30
0.0
 10
161.997945
 20
408.114173
 30
0.0
 10
161.417000
 20
407.107946
 30
0.0
 10
161.417000
 20
406.019000
 30
0.0
  0
SPLINE
  5
11e
100
AcDbEntity
  8
BLACK
 62
1
100
AcDbSpline
 70
8
 71
3
 72
8
 73
4
 74
0
 40
0
 40
0
 40
0
 40
0
 40
1
 40
1
 40
1
 40
1
 10
161.417000
 20
406.019000
 30
0.0
 10
161.417000
 20
404.930054
 30
0.0
 10
161.997946
 20
403.923827
 30
0.0
 10
162.941000
 20
403.379354
 30
0.0
  0
SPLINE
  5
11f
100
AcDbEntity
  8
BLACK
 62
1
100
AcDbSpline
 70
8
 71
3
 72
8
 73
4
 74
0
 40
0
 40
0
 40
0
 40
0
 40
1
 40
1
 40
1
 40
1
 10
162.941000
 20
403.379354
 30
0.0
 10
163.884054
 20
402.834882
 30
0.0
 10
165.045946
 20
402.834882
 30
0.0
 10
165.989000
 20
403.379354
 30
0.0
  0
SPLINE
  5
120
100
AcDbEntity
  8
BLACK
 62
1
100
AcDbSpline
 70
8
 71
3
 72
8
 73
4
 74
0
 40
0
 40
0
 40
0
 40
0
 40
1
 40
1
 40
1
 40
1
 10
165.989000
 20
403.379354
 30
0.0
 10
166.932054
 20
403.923827
 30
0.0
 10
167.513000
 20
404.930054
 30
0.0
 10
167.513000
 20
406.019000
 30
0.0
  0
LWPOLYLINE
  5
121
100
AcDbEntity
  8
BLACK
 62
1
100
AcDbPolyline
 90
2
 70
0
 10
304.165000
 20
406.019000
 30
0.0
 10
304.165000
 20
406.019000
 30
0.0
  0
LWPOLYLINE
  5
122
100
AcDbEntity
  8
BLACK
 62
1
100
AcDbPolyline
 90
2
 70
0
 10
167.513000
 20
406.019000
 30
0.0
 10
167.513000
 20
406.019000
 30
0.0
  0
LWPOLYLINE
  5
123
100
AcDbEntity
  8
BLACK
 62
1
100
AcDbPolyline
 90
2
 70
0
 10
335.915000
 20
403.829250
 30
0.0
 10
-6.985000
 20
403.829250
 30
0.0
  0
LWPOLYLINE
  5
124
100
AcDbEntity
  8
BLACK
 62
7
100
AcDbPolyline
 90
2
 70
0
 10
276.274922
 20
306.705000
 30
0.0
 10
276.274922
 20
429.132999
 30
0.0
  0
LWPOLYLINE
  5
125
100
AcDbEntity
  8
BLACK
 62
1
100
AcDbPolyline
 90
2
 70
0
 10
-6.985000
 20
304.165000
 30
0.0
 10
335.915000
 20
304.165000
 30
0.0
  0
LWPOLYLINE
  5
126
100
AcDbEntity
  8
BLACK
 62
1
100
AcDbPolyline
 90
2
 70
0
 10
-9.525000
 20
429.133000
 30
0.0
 10
-9.525000
 20
306.705000
 30
0.0
  0
LWPOLYLINE
  5
127
100
AcDbEntity
  8
BLACK
 62
1
100
AcDbPolyline
 90
45
 70
0
 10
243.047520
 20
341.884000
 30
0.0
 10
257.017520
 20
341.884000
 30
0.0
 10
257.017520
 20
339.775800
 30
0.0
 10
258.643120
 20
339.775800
 30
0.0
 10
258.643120
 20
340.588600
 30
0.0
 10
260.319520
 20
340.588600
 30
0.0
 10
260.319520
 20
341.122000
 30
0.0
 10
263.621520
 20
341.122000
 30
0.0
 10
263.621520
 20
340.588600
 30
0.0
 10
265.297920
 20
340.588600
 30
0.0
 10
265.297920
 20
337.185000
 30
0.0
 10
266.186920
 20
337.185000
 30
0.0
 10
266.186920
 20
334.391000
 30
0.0
 10
265.297920
 20
334.391000
 30
0.0
 10
265.297920
 20
328.295000
 30
0.0
 10
263.621520
 20
328.295000
 30
0.0
 10
263.621520
 20
327.152000
 30
0.0
 10
260.319520
 20
327.152000
 30
0.0
 10
260.319520
 20
328.295000
 30
0.0
 10
258.643120
 20
328.295000
 30
0.0
 10
258.643120
 20
329.082400
 30
0.0
 10
257.017520
 20
329.082400
 30
0.0
 10
257.017520
 20
327.914000
 30
0.0
 10
243.047520
 20
327.914000
 30
0.0
 10
243.047520
 20
329.082400
 30
0.0
 10
241.421920
 20
329.082400
 30
0.0
 10
241.421920
 20
328.295000
 30
0.0
 10
239.745520
 20
328.295000
 30
0.0
 10
239.745520
 20
327.152000
 30
0.0
 10
236.443520
 20
327.152000
 30
0.0
 10
236.443520
 20
328.295000
 30
0.0
 10
234.767120
 20
328.295000
 30
0.0
 10
234.767120
 20
334.391000
 30
0.0
 10
233.878120
 20
334.391000
 30
0.0
 10
233.878120
 20
337.185000
 30
0.0
 10
234.767120
 20
337.185000
 30
0.0
 10
234.767120
 20
340.588600
 30
0.0
 10
236.443520
 20
340.588600
 30
0.0
 10
236.443520
 20
341.122000
 30
0.0
 10
239.745520
 20
341.122000
 30
0.0
 10
239.745520
 20
340.588600
 30
0.0
 10
241.421920
 20
340.588600
 30
0.0
 10
241.421920
 20
339.775800
 30
0.0
 10
243.047520
 20
339.775800
 30
0.0
 10
243.047520
 20
341.884000
 30
0.0
  0
LWPOLYLINE
  5
128
100
AcDbEntity
  8
BLACK
 62
1
100
AcDbPolyline
 90
45
 70
0
 10
250.190000
 20
399.034000
 30
0.0
 10
264.160000
 20
399.034000
 30
0.0
 10
264.160000
 20
396.925800
 30
0.0
 10
265.785600
 20
396.925800
 30
0.0
 10
265.785600
 20
397.738600
 30
0.0
 10
267.462000
 20
397.738600
 30
0.0
 10
267.462000
 20
398.272000
 30
0.0
 10
270.764000
 20
398.272000
 30
0.0
 10
270.764000
 20
397.738600
 30
0.0
 10
272.440400
 20
397.738600
 30
0.0
 10
272.440400
 20
394.335000
 30
0.0
 10
273.329400
 20
394.335000
 30
0.0
 10
273.329400
 20
391.541000
 30
0.0
 10
272.440400
 20
391.541000
 30
0.0
 10
272.440400
 20
385.445000
 30
0.0
 10
270.764000
 20
385.445000
 30
0.0
 10
270.764000
 20
384.302000
 30
0.0
 10
267.462000
 20
384.302000
 30
0.0
 10
267.462000
 20
385.445000
 30
0.0
 10
265.785600
 20
385.445000
 30
0.0
 10
265.785600
 20
386.232400
 30
0.0
 10
264.160000
 20
386.232400
 30
0.0
 10
264.160000
 20
385.064000
 30
0.0
 10
250.190000
 20
385.064000
 30
0.0
 10
250.190000
 20
386.232400
 30
0.0
 10
248.564400
 20
386.232400
 30
0.0
 10
248.564400
 20
385.445000
 30
0.0
 10
246.888000
 20
385.445000
 30
0.0
 10
246.888000
 20
384.302000
 30
0.0
 10
243.586000
 20
384.302000
 30
0.0
 10
243.586000
 20
385.445000
 30
0.0
 10
241.909600
 20
385.445000
 30
0.0
 10
241.909600
 20
391.541000
 30
0.0
 10
241.020600
 20
391.541000
 30
0.0
 10
241.020600
 20
394.335000
 30
0.0
 10
241.909600
 20
394.335000
 30
0.0
 10
241.909600
 20
397.738600
 30
0.0
 10
243.586000
 20
397.738600
 30
0.0
 10
243.586000
 20
398.272000
 30
0.0
 10
246.888000
 20
398.272000
 30
0.0
 10
246.888000
 20
397.738600
 30
0.0
 10
248.564400
 20
397.738600
 30
0.0
 10
248.564400
 20
396.925800
 30
0.0
 10
250.190000
 20
396.925800
 30
0.0
 10
250.190000
 20
399.034000
 30
0.0
  0
LWPOLYLINE
  5
129
100
AcDbEntity
  8
BLACK
 62
1
100
AcDbPolyline
 90
45
 70
0
 10
257.335020
 20
356.489000
 30
0.0
 10
257.335020
 20
370.459000
 30
0.0
 10
259.443220
 20
370.459000
 30
0.0
 10
259.443220
 20
372.084600
 30
0.0
 10
258.630420
 20
372.084600
 30
0.0
 10
258.630420
 20
373.761000
 30
0.0
 10
258.097020
 20
373.761000
 30
0.0
 10
258.097020
 20
377.063000
 30
0.0
 10
258.630420
 20
377.063000
 30
0.0
 10
258.630420
 20
378.739400
 30
0.0
 10
262.034020
 20
378.739400
 30
0.0
 10
262.034020
 20
379.628400
 30
0.0
 10
264.828020
 20
379.628400
 30
0.0
 10
264.828020
 20
378.739400
 30
0.0
 10
270.924020
 20
378.739400
 30
0.0
 10
270.924020
 20
377.063000
 30
0.0
 10
272.067020
 20
377.063000
 30
0.0
 10
272.067020
 20
373.761000
 30
0.0
 10
270.924020
 20
373.761000
 30
0.0
 10
270.924020
 20
372.084600
 30
0.0
 10
270.136620
 20
372.084600
 30
0.0
 10
270.136620
 20
370.459000
 30
0.0
 10
271.305020
 20
370.459000
 30
0.0
 10
271.305020
 20
356.489000
 30
0.0
 10
270.136620
 20
356.489000
 30
0.0
 10
270.136620
 20
354.863400
 30
0.0
 10
270.924020
 20
354.863400
 30
0.0
 10
270.924020
 20
353.187000
 30
0.0
 10
272.067020
 20
353.187000
 30
0.0
 10
272.067020
 20
349.885000
 30
0.0
 10
270.924020
 20
349.885000
 30
0.0
 10
270.924020
 20
348.208600
 30
0.0
 10
264.828020
 20
348.208600
 30
0.0
 10
264.828020
 20
347.319600
 30
0.0
 10
262.034020
 20
347.319600
 30
0.0
 10
262.034020
 20
348.208600
 30
0.0
 10
258.630420
 20
348.208600
 30
0.0
 10
258.630420
 20
349.885000
 30
0.0
 10
258.097020
 20
349.885000
 30
0.0
 10
258.097020
 20
353.187000
 30
0.0
 10
258.630420
 20
353.187000
 30
0.0
 10
258.630420
 20
354.863400
 30
0.0
 10
259.443220
 20
354.863400
 30
0.0
 10
259.443220
 20
356.489000
 30
0.0
 10
257.335020
 20
356.489000
 30
0.0
  0
LWPOLYLINE
  5
12a
100
AcDbEntity
  8
BLACK
 62
1
100
AcDbPolyline
 90
85
 70
0
 10
114.460020
 20
322.834000
 30
0.0
 10
140.337540
 20
322.834000
 30
0.0
 10
140.337540
 20
321.853560
 30
0.0
 10
141.150340
 20
321.853560
 30
0.0
 10
141.150340
 20
318.135000
 30
0.0
 10
158.122620
 20
318.135000
 30
0.0
 10
158.122620
 20
321.538600
 30
0.0
 10
159.799020
 20
321.538600
 30
0.0
 10
159.799020
 20
322.072000
 30
0.0
 10
163.101020
 20
322.072000
 30
0.0
 10
163.101020
 20
321.538600
 30
0.0
 10
164.777420
 20
321.538600
 30
0.0
 10
164.777420
 20
318.135000
 30
0.0
 10
168.155620
 20
318.135000
 30
0.0
 10
168.155620
 20
321.538600
 30
0.0
 10
169.832020
 20
321.538600
 30
0.0
 10
169.832020
 20
322.072000
 30
0.0
 10
173.134020
 20
322.072000
 30
0.0
 10
173.134020
 20
321.538600
 30
0.0
 10
174.810420
 20
321.538600
 30
0.0
 10
174.810420
 20
318.135000
 30
0.0
 10
175.699420
 20
318.135000
 30
0.0
 10
175.699420
 20
315.341000
 30
0.0
 10
174.810420
 20
315.341000
 30
0.0
 10
174.810420
 20
309.245000
 30
0.0
 10
173.134020
 20
309.245000
 30
0.0
 10
173.134020
 20
308.102000
 30
0.0
 10
169.832020
 20
308.102000
 30
0.0
 10
169.832020
 20
309.245000
 30
0.0
 10
168.155620
 20
309.245000
 30
0.0
 10
168.155620
 20
313.563000
 30
0.0
 10
164.777420
 20
313.563000
 30
0.0
 10
164.777420
 20
309.245000
 30
0.0
 10
163.101020
 20
309.245000
 30
0.0
 10
163.101020
 20
308.102000
 30
0.0
 10
159.799020
 20
308.102000
 30
0.0
 10
159.799020
 20
309.245000
 30
0.0
 10
158.122620
 20
309.245000
 30
0.0
 10
158.122620
 20
313.563000
 30
0.0
 10
141.150340
 20
313.563000
 30
0.0
 10
141.150340
 20
309.844440
 30
0.0
 10
140.337540
 20
309.844440
 30
0.0
 10
140.337540
 20
308.864000
 30
0.0
 10
114.460020
 20
308.864000
 30
0.0
 10
114.460020
 20
309.844440
 30
0.0
 10
113.647220
 20
309.844440
 30
0.0
 10
113.647220
 20
313.563000
 30
0.0
 10
84.767420
 20
313.563000
 30
0.0
 10
84.767420
 20
309.245000
 30
0.0
 10
83.091020
 20
309.245000
 30
0.0
 10
83.091020
 20
308.102000
 30
0.0
 10
79.789020
 20
308.102000
 30
0.0
 10
79.789020
 20
309.245000
 30
0.0
 10
78.112620
 20
309.245000
 30
0.0
 10
78.112620
 20
313.563000
 30
0.0
 10
74.734420
 20
313.563000
 30
0.0
 10
74.734420
 20
309.245000
 30
0.0
 10
73.058020
 20
309.245000
 30
0.0
 10
73.058020
 20
308.102000
 30
0.0
 10
69.756020
 20
308.102000
 30
0.0
 10
69.756020
 20
309.245000
 30
0.0
 10
68.079620
 20
309.245000
 30
0.0
 10
68.079620
 20
315.341000
 30
0.0
 10
67.190620
 20
315.341000
 30
0.0
 10
67.190620
 20
318.135000
 30
0.0
 10
68.079620
 20
318.135000
 30
0.0
 10
68.079620
 20
321.538600
 30
0.0
 10
69.756020
 20
321.538600
 30
0.0
 10
69.756020
 20
322.072000
 30
0.0
 10
73.058020
 20
322.072000
 30
0.0
 10
73.058020
 20
321.538600
 30
0.0
 10
74.734420
 20
321.538600
 30
0.0
 10
74.734420
 20
318.135000
 30
0.0
 10
78.112620
 20
318.135000
 30
0.0
 10
78.112620
 20
321.538600
 30
0.0
 10
79.789020
 20
321.538600
 30
0.0
 10
79.789020
 20
322.072000
 30
0.0
 10
83.091020
 20
322.072000
 30
0.0
 10
83.091020
 20
321.538600
 30
0.0
 10
84.767420
 20
321.538600
 30
0.0
 10
84.767420
 20
318.135000
 30
0.0
 10
113.647220
 20
318.135000
 30
0.0
 10
113.647220
 20
321.853560
 30
0.0
 10
114.460020
 20
321.853560
 30
0.0
 10
114.460020
 20
322.834000
 30
0.0
  0
LWPOLYLINE
  5
12b
100
AcDbEntity
  8
BLACK
 62
1
100
AcDbPolyline
 90
21
 70
0
 10
-4.602480
 20
360.934000
 30
0.0
 10
14.130020
 20
360.934000
 30
0.0
 10
14.130020
 20
359.953560
 30
0.0
 10
14.942820
 20
359.953560
 30
0.0
 10
14.942820
 20
356.453440
 30
0.0
 10
14.130020
 20
356.453440
 30
0.0
 10
14.130020
 20
351.444560
 30
0.0
 10
14.942820
 20
351.444560
 30
0.0
 10
14.942820
 20
347.944440
 30
0.0
 10
14.130020
 20
347.944440
 30
0.0
 10
14.130020
 20
346.964000
 30
0.0
 10
-4.602480
 20
346.964000
 30
0.0
 10
-4.602480
 20
347.944440
 30
0.0
 10
-5.415280
 20
347.944440
 30
0.0
 10
-5.415280
 20
351.444560
 30
0.0
 10
-4.602480
 20
351.444560
 30
0.0
 10
-4.602480
 20
356.453440
 30
0.0
 10
-5.415280
 20
356.453440
 30
0.0
 10
-5.415280
 20
359.953560
 30
0.0
 10
-4.602480
 20
359.953560
 30
0.0
 10
-4.602480
 20
360.934000
 30
0.0
  0
LWPOLYLINE
  5
12c
100
AcDbEntity
  8
BLACK
 62
1
100
AcDbPolyline
 90
21
 70
0
 10
185.897520
 20
322.834000
 30
0.0
 10
199.867520
 20
322.834000
 30
0.0
 10
199.867520
 20
321.853560
 30
0.0
 10
200.680320
 20
321.853560
 30
0.0
 10
200.680320
 20
318.353440
 30
0.0
 10
199.867520
 20
318.353440
 30
0.0
 10
199.867520
 20
313.344560
 30
0.0
 10
200.680320
 20
313.344560
 30
0.0
 10
200.680320
 20
309.844440
 30
0.0
 10
199.867520
 20
309.844440
 30
0.0
 10
199.867520
 20
308.864000
 30
0.0
 10
185.897520
 20
308.864000
 30
0.0
 10
185.897520
 20
309.844440
 30
0.0
 10
185.084720
 20
309.844440
 30
0.0
 10
185.084720
 20
313.344560
 30
0.0
 10
185.897520
 20
313.344560
 30
0.0
 10
185.897520
 20
318.353440
 30
0.0
 10
185.084720
 20
318.353440
 30
0.0
 10
185.084720
 20
321.853560
 30
0.0
 10
185.897520
 20
321.853560
 30
0.0
 10
185.897520
 20
322.834000
 30
0.0
  0
LWPOLYLINE
  5
12d
100
AcDbEntity
  8
BLACK
 62
1
100
AcDbPolyline
 90
21
 70
0
 10
257.335020
 20
322.834000
 30
0.0
 10
271.305020
 20
322.834000
 30
0.0
 10
271.305020
 20
321.853560
 30
0.0
 10
272.117820
 20
321.853560
 30
0.0
 10
272.117820
 20
318.353440
 30
0.0
 10
271.305020
 20
318.353440
 30
0.0
 10
271.305020
 20
313.344560
 30
0.0
 10
272.117820
 20
313.344560
 30
0.0
 10
272.117820
 20
309.844440
 30
0.0
 10
271.305020
 20
309.844440
 30
0.0
 10
271.305020
 20
308.864000
 30
0.0
 10
257.335020
 20
308.864000
 30
0.0
 10
257.335020
 20
309.844440
 30
0.0
 10
256.522220
 20
309.844440
 30
0.0
 10
256.522220
 20
313.344560
 30
0.0
 10
257.335020
 20
313.344560
 30
0.0
 10
257.335020
 20
318.353440
 30
0.0
 10
256.522220
 20
318.353440
 30
0.0
 10
256.522220
 20
321.853560
 30
0.0
 10
257.335020
 20
321.853560
 30
0.0
 10
257.335020
 20
322.834000
 30
0.0
  0
LWPOLYLINE
  5
12e
100
AcDbEntity
  8
BLACK
 62
1
100
AcDbPolyline
 90
21
 70
0
 10
233.522520
 20
322.834000
 30
0.0
 10
247.492520
 20
322.834000
 30
0.0
 10
247.492520
 20
321.853560
 30
0.0
 10
248.305320
 20
321.853560
 30
0.0
 10
248.305320
 20
318.353440
 30
0.0
 10
247.492520
 20
318.353440
 30
0.0
 10
247.492520
 20
313.344560
 30
0.0
 10
248.305320
 20
313.344560
 30
0.0
 10
248.305320
 20
309.844440
 30
0.0
 10
247.492520
 20
309.844440
 30
0.0
 10
247.492520
 20
308.864000
 30
0.0
 10
233.522520
 20
308.864000
 30
0.0
 10
233.522520
 20
309.844440
 30
0.0
 10
232.709720
 20
309.844440
 30
0.0
 10
232.709720
 20
313.344560
 30
0.0
 10
233.522520
 20
313.344560
 30
0.0
 10
233.522520
 20
318.353440
 30
0.0
 10
232.709720
 20
318.353440
 30
0.0
 10
232.709720
 20
321.853560
 30
0.0
 10
233.522520
 20
321.853560
 30
0.0
 10
233.522520
 20
322.834000
 30
0.0
  0
LWPOLYLINE
  5
12f
100
AcDbEntity
  8
BLACK
 62
1
100
AcDbPolyline
 90
21
 70
0
 10
209.710020
 20
322.834000
 30
0.0
 10
223.680020
 20
322.834000
 30
0.0
 10
223.680020
 20
321.853560
 30
0.0
 10
224.492820
 20
321.853560
 30
0.0
 10
224.492820
 20
318.353440
 30
0.0
 10
223.680020
 20
318.353440
 30
0.0
 10
223.680020
 20
313.344560
 30
0.0
 10
224.492820
 20
313.344560
 30
0.0
 10
224.492820
 20
309.844440
 30
0.0
 10
223.680020
 20
309.844440
 30
0.0
 10
223.680020
 20
308.864000
 30
0.0
 10
209.710020
 20
308.864000
 30
0.0
 10
209.710020
 20
309.844440
 30
0.0
 10
208.897220
 20
309.844440
 30
0.0
 10
208.897220
 20
313.344560
 30
0.0
 10
209.710020
 20
313.344560
 30
0.0
 10
209.710020
 20
318.353440
 30
0.0
 10
208.897220
 20
318.353440
 30
0.0
 10
208.897220
 20
321.853560
 30
0.0
 10
209.710020
 20
321.853560
 30
0.0
 10
209.710020
 20
322.834000
 30
0.0
  0
LWPOLYLINE
  5
130
100
AcDbEntity
  8
BLACK
 62
1
100
AcDbPolyline
 90
21
 70
0
 10
43.022520
 20
322.834000
 30
0.0
 10
56.992520
 20
322.834000
 30
0.0
 10
56.992520
 20
321.853560
 30
0.0
 10
57.805320
 20
321.853560
 30
0.0
 10
57.805320
 20
318.353440
 30
0.0
 10
56.992520
 20
318.353440
 30
0.0
 10
56.992520
 20
313.344560
 30
0.0
 10
57.805320
 20
313.344560
 30
0.0
 10
57.805320
 20
309.844440
 30
0.0
 10
56.992520
 20
309.844440
 30
0.0
 10
56.992520
 20
308.864000
 30
0.0
 10
43.022520
 20
308.864000
 30
0.0
 10
43.022520
 20
309.844440
 30
0.0
 10
42.209720
 20
309.844440
 30
0.0
 10
42.209720
 20
313.344560
 30
0.0
 10
43.022520
 20
313.344560
 30
0.0
 10
43.022520
 20
318.353440
 30
0.0
 10
42.209720
 20
318.353440
 30
0.0
 10
42.209720
 20
321.853560
 30
0.0
 10
43.022520
 20
321.853560
 30
0.0
 10
43.022520
 20
322.834000
 30
0.0
  0
LWPOLYLINE
  5
131
100
AcDbEntity
  8
BLACK
 62
1
100
AcDbPolyline
 90
21
 70
0
 10
19.210020
 20
322.834000
 30
0.0
 10
33.180020
 20
322.834000
 30
0.0
 10
33.180020
 20
321.853560
 30
0.0
 10
33.992820
 20
321.853560
 30
0.0
 10
33.992820
 20
318.353440
 30
0.0
 10
33.180020
 20
318.353440
 30
0.0
 10
33.180020
 20
313.344560
 30
0.0
 10
33.992820
 20
313.344560
 30
0.0
 10
33.992820
 20
309.844440
 30
0.0
 10
33.180020
 20
309.844440
 30
0.0
 10
33.180020
 20
308.864000
 30
0.0
 10
19.210020
 20
308.864000
 30
0.0
 10
19.210020
 20
309.844440
 30
0.0
 10
18.397220
 20
309.844440
 30
0.0
 10
18.397220
 20
313.344560
 30
0.0
 10
19.210020
 20
313.344560
 30
0.0
 10
19.210020
 20
318.353440
 30
0.0
 10
18.397220
 20
318.353440
 30
0.0
 10
18.397220
 20
321.853560
 30
0.0
 10
19.210020
 20
321.853560
 30
0.0
 10
19.210020
 20
322.834000
 30
0.0
  0
LWPOLYLINE
  5
132
100
AcDbEntity
  8
BLACK
 62
1
100
AcDbPolyline
 90
21
 70
0
 10
-4.602480
 20
322.834000
 30
0.0
 10
9.367520
 20
322.834000
 30
0.0
 10
9.367520
 20
321.853560
 30
0.0
 10
10.180320
 20
321.853560
 30
0.0
 10
10.180320
 20
318.353440
 30
0.0
 10
9.367520
 20
318.353440
 30
0.0
 10
9.367520
 20
313.344560
 30
0.0
 10
10.180320
 20
313.344560
 30
0.0
 10
10.180320
 20
309.844440
 30
0.0
 10
9.367520
 20
309.844440
 30
0.0
 10
9.367520
 20
308.864000
 30
0.0
 10
-4.602480
 20
308.864000
 30
0.0
 10
-4.602480
 20
309.844440
 30
0.0
 10
-5.415280
 20
309.844440
 30
0.0
 10
-5.415280
 20
313.344560
 30
0.0
 10
-4.602480
 20
313.344560
 30
0.0
 10
-4.602480
 20
318.353440
 30
0.0
 10
-5.415280
 20
318.353440
 30
0.0
 10
-5.415280
 20
321.853560
 30
0.0
 10
-4.602480
 20
321.853560
 30
0.0
 10
-4.602480
 20
322.834000
 30
0.0
  0
LWPOLYLINE
  5
133
100
AcDbEntity
  8
BLACK
 62
1
100
AcDbPolyline
 90
21
 70
0
 10
35.877500
 20
341.884000
 30
0.0
 10
49.847500
 20
341.884000
 30
0.0
 10
49.847500
 20
340.903560
 30
0.0
 10
50.660300
 20
340.903560
 30
0.0
 10
50.660300
 20
337.403440
 30
0.0
 10
49.847500
 20
337.403440
 30
0.0
 10
49.847500
 20
332.394560
 30
0.0
 10
50.660300
 20
332.394560
 30
0.0
 10
50.660300
 20
328.894440
 30
0.0
 10
49.847500
 20
328.894440
 30
0.0
 10
49.847500
 20
327.914000
 30
0.0
 10
35.877500
 20
327.914000
 30
0.0
 10
35.877500
 20
328.894440
 30
0.0
 10
35.064700
 20
328.894440
 30
0.0
 10
35.064700
 20
332.394560
 30
0.0
 10
35.877500
 20
332.394560
 30
0.0
 10
35.877500
 20
337.403440
 30
0.0
 10
35.064700
 20
337.403440
 30
0.0
 10
35.064700
 20
340.903560
 30
0.0
 10
35.877500
 20
340.903560
 30
0.0
 10
35.877500
 20
341.884000
 30
0.0
  0
LWPOLYLINE
  5
134
100
AcDbEntity
  8
BLACK
 62
1
100
AcDbPolyline
 90
21
 70
0
 10
207.327500
 20
341.884000
 30
0.0
 10
221.297500
 20
341.884000
 30
0.0
 10
221.297500
 20
340.903560
 30
0.0
 10
222.110300
 20
340.903560
 30
0.0
 10
222.110300
 20
337.403440
 30
0.0
 10
221.297500
 20
337.403440
 30
0.0
 10
221.297500
 20
332.394560
 30
0.0
 10
222.110300
 20
332.394560
 30
0.0
 10
222.110300
 20
328.894440
 30
0.0
 10
221.297500
 20
328.894440
 30
0.0
 10
221.297500
 20
327.914000
 30
0.0
 10
207.327500
 20
327.914000
 30
0.0
 10
207.327500
 20
328.894440
 30
0.0
 10
206.514700
 20
328.894440
 30
0.0
 10
206.514700
 20
332.394560
 30
0.0
 10
207.327500
 20
332.394560
 30
0.0
 10
207.327500
 20
337.403440
 30
0.0
 10
206.514700
 20
337.403440
 30
0.0
 10
206.514700
 20
340.903560
 30
0.0
 10
207.327500
 20
340.903560
 30
0.0
 10
207.327500
 20
341.884000
 30
0.0
  0
LWPOLYLINE
  5
135
100
AcDbEntity
  8
BLACK
 62
1
100
AcDbPolyline
 90
21
 70
0
 10
188.277500
 20
341.884000
 30
0.0
 10
202.247500
 20
341.884000
 30
0.0
 10
202.247500
 20
340.903560
 30
0.0
 10
203.060300
 20
340.903560
 30
0.0
 10
203.060300
 20
337.403440
 30
0.0
 10
202.247500
 20
337.403440
 30
0.0
 10
202.247500
 20
332.394560
 30
0.0
 10
203.060300
 20
332.394560
 30
0.0
 10
203.060300
 20
328.894440
 30
0.0
 10
202.247500
 20
328.894440
 30
0.0
 10
202.247500
 20
327.914000
 30
0.0
 10
188.277500
 20
327.914000
 30
0.0
 10
188.277500
 20
328.894440
 30
0.0
 10
187.464700
 20
328.894440
 30
0.0
 10
187.464700
 20
332.394560
 30
0.0
 10
188.277500
 20
332.394560
 30
0.0
 10
188.277500
 20
337.403440
 30
0.0
 10
187.464700
 20
337.403440
 30
0.0
 10
187.464700
 20
340.903560
 30
0.0
 10
188.277500
 20
340.903560
 30
0.0
 10
188.277500
 20
341.884000
 30
0.0
  0
LWPOLYLINE
  5
136
100
AcDbEntity
  8
BLACK
 62
1
100
AcDbPolyline
 90
21
 70
0
 10
169.227500
 20
341.884000
 30
0.0
 10
183.197500
 20
341.884000
 30
0.0
 10
183.197500
 20
340.903560
 30
0.0
 10
184.010300
 20
340.903560
 30
0.0
 10
184.010300
 20
337.403440
 30
0.0
 10
183.197500
 20
337.403440
 30
0.0
 10
183.197500
 20
332.394560
 30
0.0
 10
184.010300
 20
332.394560
 30
0.0
 10
184.010300
 20
328.894440
 30
0.0
 10
183.197500
 20
328.894440
 30
0.0
 10
183.197500
 20
327.914000
 30
0.0
 10
169.227500
 20
327.914000
 30
0.0
 10
169.227500
 20
328.894440
 30
0.0
 10
168.414700
 20
328.894440
 30
0.0
 10
168.414700
 20
332.394560
 30
0.0
 10
169.227500
 20
332.394560
 30
0.0
 10
169.227500
 20
337.403440
 30
0.0
 10
168.414700
 20
337.403440
 30
0.0
 10
168.414700
 20
340.903560
 30
0.0
 10
169.227500
 20
340.903560
 30
0.0
 10
169.227500
 20
341.884000
 30
0.0
  0
LWPOLYLINE
  5
137
100
AcDbEntity
  8
BLACK
 62
1
100
AcDbPolyline
 90
21
 70
0
 10
150.177500
 20
341.884000
 30
0.0
 10
164.147500
 20
341.884000
 30
0.0
 10
164.147500
 20
340.903560
 30
0.0
 10
164.960300
 20
340.903560
 30
0.0
 10
164.960300
 20
337.403440
 30
0.0
 10
164.147500
 20
337.403440
 30
0.0
 10
164.147500
 20
332.394560
 30
0.0
 10
164.960300
 20
332.394560
 30
0.0
 10
164.960300
 20
328.894440
 30
0.0
 10
164.147500
 20
328.894440
 30
0.0
 10
164.147500
 20
327.914000
 30
0.0
 10
150.177500
 20
327.914000
 30
0.0
 10
150.177500
 20
328.894440
 30
0.0
 10
149.364700
 20
328.894440
 30
0.0
 10
149.364700
 20
332.394560
 30
0.0
 10
150.177500
 20
332.394560
 30
0.0
 10
150.177500
 20
337.403440
 30
0.0
 10
149.364700
 20
337.403440
 30
0.0
 10
149.364700
 20
340.903560
 30
0.0
 10
150.177500
 20
340.903560
 30
0.0
 10
150.177500
 20
341.884000
 30
0.0
  0
LWPOLYLINE
  5
138
100
AcDbEntity
  8
BLACK
 62
1
100
AcDbPolyline
 90
21
 70
0
 10
131.127500
 20
341.884000
 30
0.0
 10
145.097500
 20
341.884000
 30
0.0
 10
145.097500
 20
340.903560
 30
0.0
 10
145.910300
 20
340.903560
 30
0.0
 10
145.910300
 20
337.403440
 30
0.0
 10
145.097500
 20
337.403440
 30
0.0
 10
145.097500
 20
332.394560
 30
0.0
 10
145.910300
 20
332.394560
 30
0.0
 10
145.910300
 20
328.894440
 30
0.0
 10
145.097500
 20
328.894440
 30
0.0
 10
145.097500
 20
327.914000
 30
0.0
 10
131.127500
 20
327.914000
 30
0.0
 10
131.127500
 20
328.894440
 30
0.0
 10
130.314700
 20
328.894440
 30
0.0
 10
130.314700
 20
332.394560
 30
0.0
 10
131.127500
 20
332.394560
 30
0.0
 10
131.127500
 20
337.403440
 30
0.0
 10
130.314700
 20
337.403440
 30
0.0
 10
130.314700
 20
340.903560
 30
0.0
 10
131.127500
 20
340.903560
 30
0.0
 10
131.127500
 20
341.884000
 30
0.0
  0
LWPOLYLINE
  5
139
100
AcDbEntity
  8
BLACK
 62
1
100
AcDbPolyline
 90
21
 70
0
 10
112.077500
 20
341.884000
 30
0.0
 10
126.047500
 20
341.884000
 30
0.0
 10
126.047500
 20
340.903560
 30
0.0
 10
126.860300
 20
340.903560
 30
0.0
 10
126.860300
 20
337.403440
 30
0.0
 10
126.047500
 20
337.403440
 30
0.0
 10
126.047500
 20
332.394560
 30
0.0
 10
126.860300
 20
332.394560
 30
0.0
 10
126.860300
 20
328.894440
 30
0.0
 10
126.047500
 20
328.894440
 30
0.0
 10
126.047500
 20
327.914000
 30
0.0
 10
112.077500
 20
327.914000
 30
0.0
 10
112.077500
 20
328.894440
 30
0.0
 10
111.264700
 20
328.894440
 30
0.0
 10
111.264700
 20
332.394560
 30
0.0
 10
112.077500
 20
332.394560
 30
0.0
 10
112.077500
 20
337.403440
 30
0.0
 10
111.264700
 20
337.403440
 30
0.0
 10
111.264700
 20
340.903560
 30
0.0
 10
112.077500
 20
340.903560
 30
0.0
 10
112.077500
 20
341.884000
 30
0.0
  0
LWPOLYLINE
  5
13a
100
AcDbEntity
  8
BLACK
 62
1
100
AcDbPolyline
 90
21
 70
0
 10
93.027500
 20
341.884000
 30
0.0
 10
106.997500
 20
341.884000
 30
0.0
 10
106.997500
 20
340.903560
 30
0.0
 10
107.810300
 20
340.903560
 30
0.0
 10
107.810300
 20
337.403440
 30
0.0
 10
106.997500
 20
337.403440
 30
0.0
 10
106.997500
 20
332.394560
 30
0.0
 10
107.810300
 20
332.394560
 30
0.0
 10
107.810300
 20
328.894440
 30
0.0
 10
106.997500
 20
328.894440
 30
0.0
 10
106.997500
 20
327.914000
 30
0.0
 10
93.027500
 20
327.914000
 30
0.0
 10
93.027500
 20
328.894440
 30
0.0
 10
92.214700
 20
328.894440
 30
0.0
 10
92.214700
 20
332.394560
 30
0.0
 10
93.027500
 20
332.394560
 30
0.0
 10
93.027500
 20
337.403440
 30
0.0
 10
92.214700
 20
337.403440
 30
0.0
 10
92.214700
 20
340.903560
 30
0.0
 10
93.027500
 20
340.903560
 30
0.0
 10
93.027500
 20
341.884000
 30
0.0
  0
LWPOLYLINE
  5
13b
100
AcDbEntity
  8
BLACK
 62
1
100
AcDbPolyline
 90
21
 70
0
 10
73.977500
 20
341.884000
 30
0.0
 10
87.947500
 20
341.884000
 30
0.0
 10
87.947500
 20
340.903560
 30
0.0
 10
88.760300
 20
340.903560
 30
0.0
 10
88.760300
 20
337.403440
 30
0.0
 10
87.947500
 20
337.403440
 30
0.0
 10
87.947500
 20
332.394560
 30
0.0
 10
88.760300
 20
332.394560
 30
0.0
 10
88.760300
 20
328.894440
 30
0.0
 10
87.947500
 20
328.894440
 30
0.0
 10
87.947500
 20
327.914000
 30
0.0
 10
73.977500
 20
327.914000
 30
0.0
 10
73.977500
 20
328.894440
 30
0.0
 10
73.164700
 20
328.894440
 30
0.0
 10
73.164700
 20
332.394560
 30
0.0
 10
73.977500
 20
332.394560
 30
0.0
 10
73.977500
 20
337.403440
 30
0.0
 10
73.164700
 20
337.403440
 30
0.0
 10
73.164700
 20
340.903560
 30
0.0
 10
73.977500
 20
340.903560
 30
0.0
 10
73.977500
 20
341.884000
 30
0.0
  0
LWPOLYLINE
  5
13c
100
AcDbEntity
  8
BLACK
 62
1
100
AcDbPolyline
 90
21
 70
0
 10
54.927500
 20
341.884000
 30
0.0
 10
68.897500
 20
341.884000
 30
0.0
 10
68.897500
 20
340.903560
 30
0.0
 10
69.710300
 20
340.903560
 30
0.0
 10
69.710300
 20
337.403440
 30
0.0
 10
68.897500
 20
337.403440
 30
0.0
 10
68.897500
 20
332.394560
 30
0.0
 10
69.710300
 20
332.394560
 30
0.0
 10
69.710300
 20
328.894440
 30
0.0
 10
68.897500
 20
328.894440
 30
0.0
 10
68.897500
 20
327.914000
 30
0.0
 10
54.927500
 20
327.914000
 30
0.0
 10
54.927500
 20
328.894440
 30
0.0
 10
54.114700
 20
328.894440
 30
0.0
 10
54.114700
 20
332.394560
 30
0.0
 10
54.927500
 20
332.394560
 30
0.0
 10
54.927500
 20
337.403440
 30
0.0
 10
54.114700
 20
337.403440
 30
0.0
 10
54.114700
 20
340.903560
 30
0.0
 10
54.927500
 20
340.903560
 30
0.0
 10
54.927500
 20
341.884000
 30
0.0
  0
LWPOLYLINE
  5
13d
100
AcDbEntity
  8
BLACK
 62
1
100
AcDbPolyline
 90
21
 70
0
 10
216.852500
 20
360.934000
 30
0.0
 10
230.822500
 20
360.934000
 30
0.0
 10
230.822500
 20
359.953560
 30
0.0
 10
231.635300
 20
359.953560
 30
0.0
 10
231.635300
 20
356.453440
 30
0.0
 10
230.822500
 20
356.453440
 30
0.0
 10
230.822500
 20
351.444560
 30
0.0
 10
231.635300
 20
351.444560
 30
0.0
 10
231.635300
 20
347.944440
 30
0.0
 10
230.822500
 20
347.944440
 30
0.0
 10
230.822500
 20
346.964000
 30
0.0
 10
216.852500
 20
346.964000
 30
0.0
 10
216.852500
 20
347.944440
 30
0.0
 10
216.039700
 20
347.944440
 30
0.0
 10
216.039700
 20
351.444560
 30
0.0
 10
216.852500
 20
351.444560
 30
0.0
 10
216.852500
 20
356.453440
 30
0.0
 10
216.039700
 20
356.453440
 30
0.0
 10
216.039700
 20
359.953560
 30
0.0
 10
216.852500
 20
359.953560
 30
0.0
 10
216.852500
 20
360.934000
 30
0.0
  0
LWPOLYLINE
  5
13e
100
AcDbEntity
  8
BLACK
 62
1
100
AcDbPolyline
 90
21
 70
0
 10
197.802500
 20
360.934000
 30
0.0
 10
211.772500
 20
360.934000
 30
0.0
 10
211.772500
 20
359.953560
 30
0.0
 10
212.585300
 20
359.953560
 30
0.0
 10
212.585300
 20
356.453440
 30
0.0
 10
211.772500
 20
356.453440
 30
0.0
 10
211.772500
 20
351.444560
 30
0.0
 10
212.585300
 20
351.444560
 30
0.0
 10
212.585300
 20
347.944440
 30
0.0
 10
211.772500
 20
347.944440
 30
0.0
 10
211.772500
 20
346.964000
 30
0.0
 10
197.802500
 20
346.964000
 30
0.0
 10
197.802500
 20
347.944440
 30
0.0
 10
196.989700
 20
347.944440
 30
0.0
 10
196.989700
 20
351.444560
 30
0.0
 10
197.802500
 20
351.444560
 30
0.0
 10
197.802500
 20
356.453440
 30
0.0
 10
196.989700
 20
356.453440
 30
0.0
 10
196.989700
 20
359.953560
 30
0.0
 10
197.802500
 20
359.953560
 30
0.0
 10
197.802500
 20
360.934000
 30
0.0
  0
LWPOLYLINE
  5
13f
100
AcDbEntity
  8
BLACK
 62
1
100
AcDbPolyline
 90
21
 70
0
 10
178.752500
 20
360.934000
 30
0.0
 10
192.722500
 20
360.934000
 30
0.0
 10
192.722500
 20
359.953560
 30
0.0
 10
193.535300
 20
359.953560
 30
0.0
 10
193.535300
 20
356.453440
 30
0.0
 10
192.722500
 20
356.453440
 30
0.0
 10
192.722500
 20
351.444560
 30
0.0
 10
193.535300
 20
351.444560
 30
0.0
 10
193.535300
 20
347.944440
 30
0.0
 10
192.722500
 20
347.944440
 30
0.0
 10
192.722500
 20
346.964000
 30
0.0
 10
178.752500
 20
346.964000
 30
0.0
 10
178.752500
 20
347.944440
 30
0.0
 10
177.939700
 20
347.944440
 30
0.0
 10
177.939700
 20
351.444560
 30
0.0
 10
178.752500
 20
351.444560
 30
0.0
 10
178.752500
 20
356.453440
 30
0.0
 10
177.939700
 20
356.453440
 30
0.0
 10
177.939700
 20
359.953560
 30
0.0
 10
178.752500
 20
359.953560
 30
0.0
 10
178.752500
 20
360.934000
 30
0.0
  0
LWPOLYLINE
  5
140
100
AcDbEntity
  8
BLACK
 62
1
100
AcDbPolyline
 90
21
 70
0
 10
159.702500
 20
360.934000
 30
0.0
 10
173.672500
 20
360.934000
 30
0.0
 10
173.672500
 20
359.953560
 30
0.0
 10
174.485300
 20
359.953560
 30
0.0
 10
174.485300
 20
356.453440
 30
0.0
 10
173.672500
 20
356.453440
 30
0.0
 10
173.672500
 20
351.444560
 30
0.0
 10
174.485300
 20
351.444560
 30
0.0
 10
174.485300
 20
347.944440
 30
0.0
 10
173.672500
 20
347.944440
 30
0.0
 10
173.672500
 20
346.964000
 30
0.0
 10
159.702500
 20
346.964000
 30
0.0
 10
159.702500
 20
347.944440
 30
0.0
 10
158.889700
 20
347.944440
 30
0.0
 10
158.889700
 20
351.444560
 30
0.0
 10
159.702500
 20
351.444560
 30
0.0
 10
159.702500
 20
356.453440
 30
0.0
 10
158.889700
 20
356.453440
 30
0.0
 10
158.889700
 20
359.953560
 30
0.0
 10
159.702500
 20
359.953560
 30
0.0
 10
159.702500
 20
360.934000
 30
0.0
  0
LWPOLYLINE
  5
141
100
AcDbEntity
  8
BLACK
 62
1
100
AcDbPolyline
 90
21
 70
0
 10
140.652500
 20
360.934000
 30
0.0
 10
154.622500
 20
360.934000
 30
0.0
 10
154.622500
 20
359.953560
 30
0.0
 10
155.435300
 20
359.953560
 30
0.0
 10
155.435300
 20
356.453440
 30
0.0
 10
154.622500
 20
356.453440
 30
0.0
 10
154.622500
 20
351.444560
 30
0.0
 10
155.435300
 20
351.444560
 30
0.0
 10
155.435300
 20
347.944440
 30
0.0
 10
154.622500
 20
347.944440
 30
0.0
 10
154.622500
 20
346.964000
 30
0.0
 10
140.652500
 20
346.964000
 30
0.0
 10
140.652500
 20
347.944440
 30
0.0
 10
139.839700
 20
347.944440
 30
0.0
 10
139.839700
 20
351.444560
 30
0.0
 10
140.652500
 20
351.444560
 30
0.0
 10
140.652500
 20
356.453440
 30
0.0
 10
139.839700
 20
356.453440
 30
0.0
 10
139.839700
 20
359.953560
 30
0.0
 10
140.652500
 20
359.953560
 30
0.0
 10
140.652500
 20
360.934000
 30
0.0
  0
LWPOLYLINE
  5
142
100
AcDbEntity
  8
BLACK
 62
1
100
AcDbPolyline
 90
21
 70
0
 10
121.602500
 20
360.934000
 30
0.0
 10
135.572500
 20
360.934000
 30
0.0
 10
135.572500
 20
359.953560
 30
0.0
 10
136.385300
 20
359.953560
 30
0.0
 10
136.385300
 20
356.453440
 30
0.0
 10
135.572500
 20
356.453440
 30
0.0
 10
135.572500
 20
351.444560
 30
0.0
 10
136.385300
 20
351.444560
 30
0.0
 10
136.385300
 20
347.944440
 30
0.0
 10
135.572500
 20
347.944440
 30
0.0
 10
135.572500
 20
346.964000
 30
0.0
 10
121.602500
 20
346.964000
 30
0.0
 10
121.602500
 20
347.944440
 30
0.0
 10
120.789700
 20
347.944440
 30
0.0
 10
120.789700
 20
351.444560
 30
0.0
 10
121.602500
 20
351.444560
 30
0.0
 10
121.602500
 20
356.453440
 30
0.0
 10
120.789700
 20
356.453440
 30
0.0
 10
120.789700
 20
359.953560
 30
0.0
 10
121.602500
 20
359.953560
 30
0.0
 10
121.602500
 20
360.934000
 30
0.0
  0
LWPOLYLINE
  5
143
100
AcDbEntity
  8
BLACK
 62
1
100
AcDbPolyline
 90
21
 70
0
 10
102.552500
 20
360.934000
 30
0.0
 10
116.522500
 20
360.934000
 30
0.0
 10
116.522500
 20
359.953560
 30
0.0
 10
117.335300
 20
359.953560
 30
0.0
 10
117.335300
 20
356.453440
 30
0.0
 10
116.522500
 20
356.453440
 30
0.0
 10
116.522500
 20
351.444560
 30
0.0
 10
117.335300
 20
351.444560
 30
0.0
 10
117.335300
 20
347.944440
 30
0.0
 10
116.522500
 20
347.944440
 30
0.0
 10
116.522500
 20
346.964000
 30
0.0
 10
102.552500
 20
346.964000
 30
0.0
 10
102.552500
 20
347.944440
 30
0.0
 10
101.739700
 20
347.944440
 30
0.0
 10
101.739700
 20
351.444560
 30
0.0
 10
102.552500
 20
351.444560
 30
0.0
 10
102.552500
 20
356.453440
 30
0.0
 10
101.739700
 20
356.453440
 30
0.0
 10
101.739700
 20
359.953560
 30
0.0
 10
102.552500
 20
359.953560
 30
0.0
 10
102.552500
 20
360.934000
 30
0.0
  0
LWPOLYLINE
  5
144
100
AcDbEntity
  8
BLACK
 62
1
100
AcDbPolyline
 90
21
 70
0
 10
83.502500
 20
360.934000
 30
0.0
 10
97.472500
 20
360.934000
 30
0.0
 10
97.472500
 20
359.953560
 30
0.0
 10
98.285300
 20
359.953560
 30
0.0
 10
98.285300
 20
356.453440
 30
0.0
 10
97.472500
 20
356.453440
 30
0.0
 10
97.472500
 20
351.444560
 30
0.0
 10
98.285300
 20
351.444560
 30
0.0
 10
98.285300
 20
347.944440
 30
0.0
 10
97.472500
 20
347.944440
 30
0.0
 10
97.472500
 20
346.964000
 30
0.0
 10
83.502500
 20
346.964000
 30
0.0
 10
83.502500
 20
347.944440
 30
0.0
 10
82.689700
 20
347.944440
 30
0.0
 10
82.689700
 20
351.444560
 30
0.0
 10
83.502500
 20
351.444560
 30
0.0
 10
83.502500
 20
356.453440
 30
0.0
 10
82.689700
 20
356.453440
 30
0.0
 10
82.689700
 20
359.953560
 30
0.0
 10
83.502500
 20
359.953560
 30
0.0
 10
83.502500
 20
360.934000
 30
0.0
  0
LWPOLYLINE
  5
145
100
AcDbEntity
  8
BLACK
 62
1
100
AcDbPolyline
 90
21
 70
0
 10
64.452500
 20
360.934000
 30
0.0
 10
78.422500
 20
360.934000
 30
0.0
 10
78.422500
 20
359.953560
 30
0.0
 10
79.235300
 20
359.953560
 30
0.0
 10
79.235300
 20
356.453440
 30
0.0
 10
78.422500
 20
356.453440
 30
0.0
 10
78.422500
 20
351.444560
 30
0.0
 10
79.235300
 20
351.444560
 30
0.0
 10
79.235300
 20
347.944440
 30
0.0
 10
78.422500
 20
347.944440
 30
0.0
 10
78.422500
 20
346.964000
 30
0.0
 10
64.452500
 20
346.964000
 30
0.0
 10
64.452500
 20
347.944440
 30
0.0
 10
63.639700
 20
347.944440
 30
0.0
 10
63.639700
 20
351.444560
 30
0.0
 10
64.452500
 20
351.444560
 30
0.0
 10
64.452500
 20
356.453440
 30
0.0
 10
63.639700
 20
356.453440
 30
0.0
 10
63.639700
 20
359.953560
 30
0.0
 10
64.452500
 20
359.953560
 30
0.0
 10
64.452500
 20
360.934000
 30
0.0
  0
LWPOLYLINE
  5
146
100
AcDbEntity
  8
BLACK
 62
1
100
AcDbPolyline
 90
21
 70
0
 10
45.402500
 20
360.934000
 30
0.0
 10
59.372500
 20
360.934000
 30
0.0
 10
59.372500
 20
359.953560
 30
0.0
 10
60.185300
 20
359.953560
 30
0.0
 10
60.185300
 20
356.453440
 30
0.0
 10
59.372500
 20
356.453440
 30
0.0
 10
59.372500
 20
351.444560
 30
0.0
 10
60.185300
 20
351.444560
 30
0.0
 10
60.185300
 20
347.944440
 30
0.0
 10
59.372500
 20
347.944440
 30
0.0
 10
59.372500
 20
346.964000
 30
0.0
 10
45.402500
 20
346.964000
 30
0.0
 10
45.402500
 20
347.944440
 30
0.0
 10
44.589700
 20
347.944440
 30
0.0
 10
44.589700
 20
351.444560
 30
0.0
 10
45.402500
 20
351.444560
 30
0.0
 10
45.402500
 20
356.453440
 30
0.0
 10
44.589700
 20
356.453440
 30
0.0
 10
44.589700
 20
359.953560
 30
0.0
 10
45.402500
 20
359.953560
 30
0.0
 10
45.402500
 20
360.934000
 30
0.0
  0
LWPOLYLINE
  5
147
100
AcDbEntity
  8
BLACK
 62
1
100
AcDbPolyline
 90
21
 70
0
 10
26.352500
 20
360.934000
 30
0.0
 10
40.322500
 20
360.934000
 30
0.0
 10
40.322500
 20
359.953560
 30
0.0
 10
41.135300
 20
359.953560
 30
0.0
 10
41.135300
 20
356.453440
 30
0.0
 10
40.322500
 20
356.453440
 30
0.0
 10
40.322500
 20
351.444560
 30
0.0
 10
41.135300
 20
351.444560
 30
0.0
 10
41.135300
 20
347.944440
 30
0.0
 10
40.322500
 20
347.944440
 30
0.0
 10
40.322500
 20
346.964000
 30
0.0
 10
26.352500
 20
346.964000
 30
0.0
 10
26.352500
 20
347.944440
 30
0.0
 10
25.539700
 20
347.944440
 30
0.0
 10
25.539700
 20
351.444560
 30
0.0
 10
26.352500
 20
351.444560
 30
0.0
 10
26.352500
 20
356.453440
 30
0.0
 10
25.539700
 20
356.453440
 30
0.0
 10
25.539700
 20
359.953560
 30
0.0
 10
26.352500
 20
359.953560
 30
0.0
 10
26.352500
 20
360.934000
 30
0.0
  0
LWPOLYLINE
  5
148
100
AcDbEntity
  8
BLACK
 62
1
100
AcDbPolyline
 90
21
 70
0
 10
235.902500
 20
360.934000
 30
0.0
 10
249.872500
 20
360.934000
 30
0.0
 10
249.872500
 20
359.953560
 30
0.0
 10
250.685300
 20
359.953560
 30
0.0
 10
250.685300
 20
356.453440
 30
0.0
 10
249.872500
 20
356.453440
 30
0.0
 10
249.872500
 20
351.444560
 30
0.0
 10
250.685300
 20
351.444560
 30
0.0
 10
250.685300
 20
347.944440
 30
0.0
 10
249.872500
 20
347.944440
 30
0.0
 10
249.872500
 20
346.964000
 30
0.0
 10
235.902500
 20
346.964000
 30
0.0
 10
235.902500
 20
347.944440
 30
0.0
 10
235.089700
 20
347.944440
 30
0.0
 10
235.089700
 20
351.444560
 30
0.0
 10
235.902500
 20
351.444560
 30
0.0
 10
235.902500
 20
356.453440
 30
0.0
 10
235.089700
 20
356.453440
 30
0.0
 10
235.089700
 20
359.953560
 30
0.0
 10
235.902500
 20
359.953560
 30
0.0
 10
235.902500
 20
360.934000
 30
0.0
  0
LWPOLYLINE
  5
149
100
AcDbEntity
  8
BLACK
 62
1
100
AcDbPolyline
 90
21
 70
0
 10
231.140000
 20
379.984000
 30
0.0
 10
245.110000
 20
379.984000
 30
0.0
 10
245.110000
 20
379.003560
 30
0.0
 10
245.922800
 20
379.003560
 30
0.0
 10
245.922800
 20
375.503440
 30
0.0
 10
245.110000
 20
375.503440
 30
0.0
 10
245.110000
 20
370.494560
 30
0.0
 10
245.922800
 20
370.494560
 30
0.0
 10
245.922800
 20
366.994440
 30
0.0
 10
245.110000
 20
366.994440
 30
0.0
 10
245.110000
 20
366.014000
 30
0.0
 10
231.140000
 20
366.014000
 30
0.0
 10
231.140000
 20
366.994440
 30
0.0
 10
230.327200
 20
366.994440
 30
0.0
 10
230.327200
 20
370.494560
 30
0.0
 10
231.140000
 20
370.494560
 30
0.0
 10
231.140000
 20
375.503440
 30
0.0
 10
230.327200
 20
375.503440
 30
0.0
 10
230.327200
 20
379.003560
 30
0.0
 10
231.140000
 20
379.003560
 30
0.0
 10
231.140000
 20
379.984000
 30
0.0
  0
LWPOLYLINE
  5
14a
100
AcDbEntity
  8
BLACK
 62
1
100
AcDbPolyline
 90
21
 70
0
 10
212.090000
 20
379.984000
 30
0.0
 10
226.060000
 20
379.984000
 30
0.0
 10
226.060000
 20
379.003560
 30
0.0
 10
226.872800
 20
379.003560
 30
0.0
 10
226.872800
 20
375.503440
 30
0.0
 10
226.060000
 20
375.503440
 30
0.0
 10
226.060000
 20
370.494560
 30
0.0
 10
226.872800
 20
370.494560
 30
0.0
 10
226.872800
 20
366.994440
 30
0.0
 10
226.060000
 20
366.994440
 30
0.0
 10
226.060000
 20
366.014000
 30
0.0
 10
212.090000
 20
366.014000
 30
0.0
 10
212.090000
 20
366.994440
 30
0.0
 10
211.277200
 20
366.994440
 30
0.0
 10
211.277200
 20
370.494560
 30
0.0
 10
212.090000
 20
370.494560
 30
0.0
 10
212.090000
 20
375.503440
 30
0.0
 10
211.277200
 20
375.503440
 30
0.0
 10
211.277200
 20
379.003560
 30
0.0
 10
212.090000
 20
379.003560
 30
0.0
 10
212.090000
 20
379.984000
 30
0.0
  0
LWPOLYLINE
  5
14b
100
AcDbEntity
  8
BLACK
 62
1
100
AcDbPolyline
 90
21
 70
0
 10
193.040000
 20
379.984000
 30
0.0
 10
207.010000
 20
379.984000
 30
0.0
 10
207.010000
 20
379.003560
 30
0.0
 10
207.822800
 20
379.003560
 30
0.0
 10
207.822800
 20
375.503440
 30
0.0
 10
207.010000
 20
375.503440
 30
0.0
 10
207.010000
 20
370.494560
 30
0.0
 10
207.822800
 20
370.494560
 30
0.0
 10
207.822800
 20
366.994440
 30
0.0
 10
207.010000
 20
366.994440
 30
0.0
 10
207.010000
 20
366.014000
 30
0.0
 10
193.040000
 20
366.014000
 30
0.0
 10
193.040000
 20
366.994440
 30
0.0
 10
192.227200
 20
366.994440
 30
0.0
 10
192.227200
 20
370.494560
 30
0.0
 10
193.040000
 20
370.494560
 30
0.0
 10
193.040000
 20
375.503440
 30
0.0
 10
192.227200
 20
375.503440
 30
0.0
 10
192.227200
 20
379.003560
 30
0.0
 10
193.040000
 20
379.003560
 30
0.0
 10
193.040000
 20
379.984000
 30
0.0
  0
LWPOLYLINE
  5
14c
100
AcDbEntity
  8
BLACK
 62
1
100
AcDbPolyline
 90
21
 70
0
 10
173.990000
 20
379.984000
 30
0.0
 10
187.960000
 20
379.984000
 30
0.0
 10
187.960000
 20
379.003560
 30
0.0
 10
188.772800
 20
379.003560
 30
0.0
 10
188.772800
 20
375.503440
 30
0.0
 10
187.960000
 20
375.503440
 30
0.0
 10
187.960000
 20
370.494560
 30
0.0
 10
188.772800
 20
370.494560
 30
0.0
 10
188.772800
 20
366.994440
 30
0.0
 10
187.960000
 20
366.994440
 30
0.0
 10
187.960000
 20
366.014000
 30
0.0
 10
173.990000
 20
366.014000
 30
0.0
 10
173.990000
 20
366.994440
 30
0.0
 10
173.177200
 20
366.994440
 30
0.0
 10
173.177200
 20
370.494560
 30
0.0
 10
173.990000
 20
370.494560
 30
0.0
 10
173.990000
 20
375.503440
 30
0.0
 10
173.177200
 20
375.503440
 30
0.0
 10
173.177200
 20
379.003560
 30
0.0
 10
173.990000
 20
379.003560
 30
0.0
 10
173.990000
 20
379.984000
 30
0.0
  0
LWPOLYLINE
  5
14d
100
AcDbEntity
  8
BLACK
 62
1
100
AcDbPolyline
 90
21
 70
0
 10
154.940000
 20
379.984000
 30
0.0
 10
168.910000
 20
379.984000
 30
0.0
 10
168.910000
 20
379.003560
 30
0.0
 10
169.722800
 20
379.003560
 30
0.0
 10
169.722800
 20
375.503440
 30
0.0
 10
168.910000
 20
375.503440
 30
0.0
 10
168.910000
 20
370.494560
 30
0.0
 10
169.722800
 20
370.494560
 30
0.0
 10
169.722800
 20
366.994440
 30
0.0
 10
168.910000
 20
366.994440
 30
0.0
 10
168.910000
 20
366.014000
 30
0.0
 10
154.940000
 20
366.014000
 30
0.0
 10
154.940000
 20
366.994440
 30
0.0
 10
154.127200
 20
366.994440
 30
0.0
 10
154.127200
 20
370.494560
 30
0.0
 10
154.940000
 20
370.494560
 30
0.0
 10
154.940000
 20
375.503440
 30
0.0
 10
154.127200
 20
375.503440
 30
0.0
 10
154.127200
 20
379.003560
 30
0.0
 10
154.940000
 20
379.003560
 30
0.0
 10
154.940000
 20
379.984000
 30
0.0
  0
LWPOLYLINE
  5
14e
100
AcDbEntity
  8
BLACK
 62
1
100
AcDbPolyline
 90
21
 70
0
 10
135.890000
 20
379.984000
 30
0.0
 10
149.860000
 20
379.984000
 30
0.0
 10
149.860000
 20
379.003560
 30
0.0
 10
150.672800
 20
379.003560
 30
0.0
 10
150.672800
 20
375.503440
 30
0.0
 10
149.860000
 20
375.503440
 30
0.0
 10
149.860000
 20
370.494560
 30
0.0
 10
150.672800
 20
370.494560
 30
0.0
 10
150.672800
 20
366.994440
 30
0.0
 10
149.860000
 20
366.994440
 30
0.0
 10
149.860000
 20
366.014000
 30
0.0
 10
135.890000
 20
366.014000
 30
0.0
 10
135.890000
 20
366.994440
 30
0.0
 10
135.077200
 20
366.994440
 30
0.0
 10
135.077200
 20
370.494560
 30
0.0
 10
135.890000
 20
370.494560
 30
0.0
 10
135.890000
 20
375.503440
 30
0.0
 10
135.077200
 20
375.503440
 30
0.0
 10
135.077200
 20
379.003560
 30
0.0
 10
135.890000
 20
379.003560
 30
0.0
 10
135.890000
 20
379.984000
 30
0.0
  0
LWPOLYLINE
  5
14f
100
AcDbEntity
  8
BLACK
 62
1
100
AcDbPolyline
 90
21
 70
0
 10
116.840000
 20
379.984000
 30
0.0
 10
130.810000
 20
379.984000
 30
0.0
 10
130.810000
 20
379.003560
 30
0.0
 10
131.622800
 20
379.003560
 30
0.0
 10
131.622800
 20
375.503440
 30
0.0
 10
130.810000
 20
375.503440
 30
0.0
 10
130.810000
 20
370.494560
 30
0.0
 10
131.622800
 20
370.494560
 30
0.0
 10
131.622800
 20
366.994440
 30
0.0
 10
130.810000
 20
366.994440
 30
0.0
 10
130.810000
 20
366.014000
 30
0.0
 10
116.840000
 20
366.014000
 30
0.0
 10
116.840000
 20
366.994440
 30
0.0
 10
116.027200
 20
366.994440
 30
0.0
 10
116.027200
 20
370.494560
 30
0.0
 10
116.840000
 20
370.494560
 30
0.0
 10
116.840000
 20
375.503440
 30
0.0
 10
116.027200
 20
375.503440
 30
0.0
 10
116.027200
 20
379.003560
 30
0.0
 10
116.840000
 20
379.003560
 30
0.0
 10
116.840000
 20
379.984000
 30
0.0
  0
LWPOLYLINE
  5
150
100
AcDbEntity
  8
BLACK
 62
1
100
AcDbPolyline
 90
21
 70
0
 10
97.790000
 20
379.984000
 30
0.0
 10
111.760000
 20
379.984000
 30
0.0
 10
111.760000
 20
379.003560
 30
0.0
 10
112.572800
 20
379.003560
 30
0.0
 10
112.572800
 20
375.503440
 30
0.0
 10
111.760000
 20
375.503440
 30
0.0
 10
111.760000
 20
370.494560
 30
0.0
 10
112.572800
 20
370.494560
 30
0.0
 10
112.572800
 20
366.994440
 30
0.0
 10
111.760000
 20
366.994440
 30
0.0
 10
111.760000
 20
366.014000
 30
0.0
 10
97.790000
 20
366.014000
 30
0.0
 10
97.790000
 20
366.994440
 30
0.0
 10
96.977200
 20
366.994440
 30
0.0
 10
96.977200
 20
370.494560
 30
0.0
 10
97.790000
 20
370.494560
 30
0.0
 10
97.790000
 20
375.503440
 30
0.0
 10
96.977200
 20
375.503440
 30
0.0
 10
96.977200
 20
379.003560
 30
0.0
 10
97.790000
 20
379.003560
 30
0.0
 10
97.790000
 20
379.984000
 30
0.0
  0
LWPOLYLINE
  5
151
100
AcDbEntity
  8
BLACK
 62
1
100
AcDbPolyline
 90
21
 70
0
 10
78.740000
 20
379.984000
 30
0.0
 10
92.710000
 20
379.984000
 30
0.0
 10
92.710000
 20
379.003560
 30
0.0
 10
93.522800
 20
379.003560
 30
0.0
 10
93.522800
 20
375.503440
 30
0.0
 10
92.710000
 20
375.503440
 30
0.0
 10
92.710000
 20
370.494560
 30
0.0
 10
93.522800
 20
370.494560
 30
0.0
 10
93.522800
 20
366.994440
 30
0.0
 10
92.710000
 20
366.994440
 30
0.0
 10
92.710000
 20
366.014000
 30
0.0
 10
78.740000
 20
366.014000
 30
0.0
 10
78.740000
 20
366.994440
 30
0.0
 10
77.927200
 20
366.994440
 30
0.0
 10
77.927200
 20
370.494560
 30
0.0
 10
78.740000
 20
370.494560
 30
0.0
 10
78.740000
 20
375.503440
 30
0.0
 10
77.927200
 20
375.503440
 30
0.0
 10
77.927200
 20
379.003560
 30
0.0
 10
78.740000
 20
379.003560
 30
0.0
 10
78.740000
 20
379.984000
 30
0.0
  0
LWPOLYLINE
  5
152
100
AcDbEntity
  8
BLACK
 62
1
100
AcDbPolyline
 90
21
 70
0
 10
59.690000
 20
379.984000
 30
0.0
 10
73.660000
 20
379.984000
 30
0.0
 10
73.660000
 20
379.003560
 30
0.0
 10
74.472800
 20
379.003560
 30
0.0
 10
74.472800
 20
375.503440
 30
0.0
 10
73.660000
 20
375.503440
 30
0.0
 10
73.660000
 20
370.494560
 30
0.0
 10
74.472800
 20
370.494560
 30
0.0
 10
74.472800
 20
366.994440
 30
0.0
 10
73.660000
 20
366.994440
 30
0.0
 10
73.660000
 20
366.014000
 30
0.0
 10
59.690000
 20
366.014000
 30
0.0
 10
59.690000
 20
366.994440
 30
0.0
 10
58.877200
 20
366.994440
 30
0.0
 10
58.877200
 20
370.494560
 30
0.0
 10
59.690000
 20
370.494560
 30
0.0
 10
59.690000
 20
375.503440
 30
0.0
 10
58.877200
 20
375.503440
 30
0.0
 10
58.877200
 20
379.003560
 30
0.0
 10
59.690000
 20
379.003560
 30
0.0
 10
59.690000
 20
379.984000
 30
0.0
  0
LWPOLYLINE
  5
153
100
AcDbEntity
  8
BLACK
 62
1
100
AcDbPolyline
 90
21
 70
0
 10
40.640000
 20
379.984000
 30
0.0
 10
54.610000
 20
379.984000
 30
0.0
 10
54.610000
 20
379.003560
 30
0.0
 10
55.422800
 20
379.003560
 30
0.0
 10
55.422800
 20
375.503440
 30
0.0
 10
54.610000
 20
375.503440
 30
0.0
 10
54.610000
 20
370.494560
 30
0.0
 10
55.422800
 20
370.494560
 30
0.0
 10
55.422800
 20
366.994440
 30
0.0
 10
54.610000
 20
366.994440
 30
0.0
 10
54.610000
 20
366.014000
 30
0.0
 10
40.640000
 20
366.014000
 30
0.0
 10
40.640000
 20
366.994440
 30
0.0
 10
39.827200
 20
366.994440
 30
0.0
 10
39.827200
 20
370.494560
 30
0.0
 10
40.640000
 20
370.494560
 30
0.0
 10
40.640000
 20
375.503440
 30
0.0
 10
39.827200
 20
375.503440
 30
0.0
 10
39.827200
 20
379.003560
 30
0.0
 10
40.640000
 20
379.003560
 30
0.0
 10
40.640000
 20
379.984000
 30
0.0
  0
LWPOLYLINE
  5
154
100
AcDbEntity
  8
BLACK
 62
1
100
AcDbPolyline
 90
21
 70
0
 10
21.590000
 20
379.984000
 30
0.0
 10
35.560000
 20
379.984000
 30
0.0
 10
35.560000
 20
379.003560
 30
0.0
 10
36.372800
 20
379.003560
 30
0.0
 10
36.372800
 20
375.503440
 30
0.0
 10
35.560000
 20
375.503440
 30
0.0
 10
35.560000
 20
370.494560
 30
0.0
 10
36.372800
 20
370.494560
 30
0.0
 10
36.372800
 20
366.994440
 30
0.0
 10
35.560000
 20
366.994440
 30
0.0
 10
35.560000
 20
366.014000
 30
0.0
 10
21.590000
 20
366.014000
 30
0.0
 10
21.590000
 20
366.994440
 30
0.0
 10
20.777200
 20
366.994440
 30
0.0
 10
20.777200
 20
370.494560
 30
0.0
 10
21.590000
 20
370.494560
 30
0.0
 10
21.590000
 20
375.503440
 30
0.0
 10
20.777200
 20
375.503440
 30
0.0
 10
20.777200
 20
379.003560
 30
0.0
 10
21.590000
 20
379.003560
 30
0.0
 10
21.590000
 20
379.984000
 30
0.0
  0
LWPOLYLINE
  5
155
100
AcDbEntity
  8
BLACK
 62
1
100
AcDbPolyline
 90
21
 70
0
 10
-2.222500
 20
379.984000
 30
0.0
 10
11.747500
 20
379.984000
 30
0.0
 10
11.747500
 20
379.003560
 30
0.0
 10
12.560300
 20
379.003560
 30
0.0
 10
12.560300
 20
375.503440
 30
0.0
 10
11.747500
 20
375.503440
 30
0.0
 10
11.747500
 20
370.494560
 30
0.0
 10
12.560300
 20
370.494560
 30
0.0
 10
12.560300
 20
366.994440
 30
0.0
 10
11.747500
 20
366.994440
 30
0.0
 10
11.747500
 20
366.014000
 30
0.0
 10
-2.222500
 20
366.014000
 30
0.0
 10
-2.222500
 20
366.994440
 30
0.0
 10
-3.035300
 20
366.994440
 30
0.0
 10
-3.035300
 20
370.494560
 30
0.0
 10
-2.222500
 20
370.494560
 30
0.0
 10
-2.222500
 20
375.503440
 30
0.0
 10
-3.035300
 20
375.503440
 30
0.0
 10
-3.035300
 20
379.003560
 30
0.0
 10
-2.222500
 20
379.003560
 30
0.0
 10
-2.222500
 20
379.984000
 30
0.0
  0
LWPOLYLINE
  5
156
100
AcDbEntity
  8
BLACK
 62
1
100
AcDbPolyline
 90
21
 70
0
 10
221.615000
 20
399.034000
 30
0.0
 10
235.585000
 20
399.034000
 30
0.0
 10
235.585000
 20
398.053560
 30
0.0
 10
236.397800
 20
398.053560
 30
0.0
 10
236.397800
 20
394.553440
 30
0.0
 10
235.585000
 20
394.553440
 30
0.0
 10
235.585000
 20
389.544560
 30
0.0
 10
236.397800
 20
389.544560
 30
0.0
 10
236.397800
 20
386.044440
 30
0.0
 10
235.585000
 20
386.044440
 30
0.0
 10
235.585000
 20
385.064000
 30
0.0
 10
221.615000
 20
385.064000
 30
0.0
 10
221.615000
 20
386.044440
 30
0.0
 10
220.802200
 20
386.044440
 30
0.0
 10
220.802200
 20
389.544560
 30
0.0
 10
221.615000
 20
389.544560
 30
0.0
 10
221.615000
 20
394.553440
 30
0.0
 10
220.802200
 20
394.553440
 30
0.0
 10
220.802200
 20
398.053560
 30
0.0
 10
221.615000
 20
398.053560
 30
0.0
 10
221.615000
 20
399.034000
 30
0.0
  0
LWPOLYLINE
  5
157
100
AcDbEntity
  8
BLACK
 62
1
100
AcDbPolyline
 90
21
 70
0
 10
202.565000
 20
399.034000
 30
0.0
 10
216.535000
 20
399.034000
 30
0.0
 10
216.535000
 20
398.053560
 30
0.0
 10
217.347800
 20
398.053560
 30
0.0
 10
217.347800
 20
394.553440
 30
0.0
 10
216.535000
 20
394.553440
 30
0.0
 10
216.535000
 20
389.544560
 30
0.0
 10
217.347800
 20
389.544560
 30
0.0
 10
217.347800
 20
386.044440
 30
0.0
 10
216.535000
 20
386.044440
 30
0.0
 10
216.535000
 20
385.064000
 30
0.0
 10
202.565000
 20
385.064000
 30
0.0
 10
202.565000
 20
386.044440
 30
0.0
 10
201.752200
 20
386.044440
 30
0.0
 10
201.752200
 20
389.544560
 30
0.0
 10
202.565000
 20
389.544560
 30
0.0
 10
202.565000
 20
394.553440
 30
0.0
 10
201.752200
 20
394.553440
 30
0.0
 10
201.752200
 20
398.053560
 30
0.0
 10
202.565000
 20
398.053560
 30
0.0
 10
202.565000
 20
399.034000
 30
0.0
  0
LWPOLYLINE
  5
158
100
AcDbEntity
  8
BLACK
 62
1
100
AcDbPolyline
 90
21
 70
0
 10
183.515000
 20
399.034000
 30
0.0
 10
197.485000
 20
399.034000
 30
0.0
 10
197.485000
 20
398.053560
 30
0.0
 10
198.297800
 20
398.053560
 30
0.0
 10
198.297800
 20
394.553440
 30
0.0
 10
197.485000
 20
394.553440
 30
0.0
 10
197.485000
 20
389.544560
 30
0.0
 10
198.297800
 20
389.544560
 30
0.0
 10
198.297800
 20
386.044440
 30
0.0
 10
197.485000
 20
386.044440
 30
0.0
 10
197.485000
 20
385.064000
 30
0.0
 10
183.515000
 20
385.064000
 30
0.0
 10
183.515000
 20
386.044440
 30
0.0
 10
182.702200
 20
386.044440
 30
0.0
 10
182.702200
 20
389.544560
 30
0.0
 10
183.515000
 20
389.544560
 30
0.0
 10
183.515000
 20
394.553440
 30
0.0
 10
182.702200
 20
394.553440
 30
0.0
 10
182.702200
 20
398.053560
 30
0.0
 10
183.515000
 20
398.053560
 30
0.0
 10
183.515000
 20
399.034000
 30
0.0
  0
LWPOLYLINE
  5
159
100
AcDbEntity
  8
BLACK
 62
1
100
AcDbPolyline
 90
21
 70
0
 10
164.465000
 20
399.034000
 30
0.0
 10
178.435000
 20
399.034000
 30
0.0
 10
178.435000
 20
398.053560
 30
0.0
 10
179.247800
 20
398.053560
 30
0.0
 10
179.247800
 20
394.553440
 30
0.0
 10
178.435000
 20
394.553440
 30
0.0
 10
178.435000
 20
389.544560
 30
0.0
 10
179.247800
 20
389.544560
 30
0.0
 10
179.247800
 20
386.044440
 30
0.0
 10
178.435000
 20
386.044440
 30
0.0
 10
178.435000
 20
385.064000
 30
0.0
 10
164.465000
 20
385.064000
 30
0.0
 10
164.465000
 20
386.044440
 30
0.0
 10
163.652200
 20
386.044440
 30
0.0
 10
163.652200
 20
389.544560
 30
0.0
 10
164.465000
 20
389.544560
 30
0.0
 10
164.465000
 20
394.553440
 30
0.0
 10
163.652200
 20
394.553440
 30
0.0
 10
163.652200
 20
398.053560
 30
0.0
 10
164.465000
 20
398.053560
 30
0.0
 10
164.465000
 20
399.034000
 30
0.0
  0
LWPOLYLINE
  5
15a
100
AcDbEntity
  8
BLACK
 62
1
100
AcDbPolyline
 90
21
 70
0
 10
145.415000
 20
399.034000
 30
0.0
 10
159.385000
 20
399.034000
 30
0.0
 10
159.385000
 20
398.053560
 30
0.0
 10
160.197800
 20
398.053560
 30
0.0
 10
160.197800
 20
394.553440
 30
0.0
 10
159.385000
 20
394.553440
 30
0.0
 10
159.385000
 20
389.544560
 30
0.0
 10
160.197800
 20
389.544560
 30
0.0
 10
160.197800
 20
386.044440
 30
0.0
 10
159.385000
 20
386.044440
 30
0.0
 10
159.385000
 20
385.064000
 30
0.0
 10
145.415000
 20
385.064000
 30
0.0
 10
145.415000
 20
386.044440
 30
0.0
 10
144.602200
 20
386.044440
 30
0.0
 10
144.602200
 20
389.544560
 30
0.0
 10
145.415000
 20
389.544560
 30
0.0
 10
145.415000
 20
394.553440
 30
0.0
 10
144.602200
 20
394.553440
 30
0.0
 10
144.602200
 20
398.053560
 30
0.0
 10
145.415000
 20
398.053560
 30
0.0
 10
145.415000
 20
399.034000
 30
0.0
  0
LWPOLYLINE
  5
15b
100
AcDbEntity
  8
BLACK
 62
1
100
AcDbPolyline
 90
21
 70
0
 10
126.365000
 20
399.034000
 30
0.0
 10
140.335000
 20
399.034000
 30
0.0
 10
140.335000
 20
398.053560
 30
0.0
 10
141.147800
 20
398.053560
 30
0.0
 10
141.147800
 20
394.553440
 30
0.0
 10
140.335000
 20
394.553440
 30
0.0
 10
140.335000
 20
389.544560
 30
0.0
 10
141.147800
 20
389.544560
 30
0.0
 10
141.147800
 20
386.044440
 30
0.0
 10
140.335000
 20
386.044440
 30
0.0
 10
140.335000
 20
385.064000
 30
0.0
 10
126.365000
 20
385.064000
 30
0.0
 10
126.365000
 20
386.044440
 30
0.0
 10
125.552200
 20
386.044440
 30
0.0
 10
125.552200
 20
389.544560
 30
0.0
 10
126.365000
 20
389.544560
 30
0.0
 10
126.365000
 20
394.553440
 30
0.0
 10
125.552200
 20
394.553440
 30
0.0
 10
125.552200
 20
398.053560
 30
0.0
 10
126.365000
 20
398.053560
 30
0.0
 10
126.365000
 20
399.034000
 30
0.0
  0
LWPOLYLINE
  5
15c
100
AcDbEntity
  8
BLACK
 62
1
100
AcDbPolyline
 90
21
 70
0
 10
107.315000
 20
399.034000
 30
0.0
 10
121.285000
 20
399.034000
 30
0.0
 10
121.285000
 20
398.053560
 30
0.0
 10
122.097800
 20
398.053560
 30
0.0
 10
122.097800
 20
394.553440
 30
0.0
 10
121.285000
 20
394.553440
 30
0.0
 10
121.285000
 20
389.544560
 30
0.0
 10
122.097800
 20
389.544560
 30
0.0
 10
122.097800
 20
386.044440
 30
0.0
 10
121.285000
 20
386.044440
 30
0.0
 10
121.285000
 20
385.064000
 30
0.0
 10
107.315000
 20
385.064000
 30
0.0
 10
107.315000
 20
386.044440
 30
0.0
 10
106.502200
 20
386.044440
 30
0.0
 10
106.502200
 20
389.544560
 30
0.0
 10
107.315000
 20
389.544560
 30
0.0
 10
107.315000
 20
394.553440
 30
0.0
 10
106.502200
 20
394.553440
 30
0.0
 10
106.502200
 20
398.053560
 30
0.0
 10
107.315000
 20
398.053560
 30
0.0
 10
107.315000
 20
399.034000
 30
0.0
  0
LWPOLYLINE
  5
15d
100
AcDbEntity
  8
BLACK
 62
1
100
AcDbPolyline
 90
21
 70
0
 10
102.235000
 20
385.064000
 30
0.0
 10
88.265000
 20
385.064000
 30
0.0
 10
88.265000
 20
386.044440
 30
0.0
 10
87.452200
 20
386.044440
 30
0.0
 10
87.452200
 20
389.544560
 30
0.0
 10
88.265000
 20
389.544560
 30
0.0
 10
88.265000
 20
394.553440
 30
0.0
 10
87.452200
 20
394.553440
 30
0.0
 10
87.452200
 20
398.053560
 30
0.0
 10
88.265000
 20
398.053560
 30
0.0
 10
88.265000
 20
399.034000
 30
0.0
 10
102.235000
 20
399.034000
 30
0.0
 10
102.235000
 20
398.053560
 30
0.0
 10
103.047800
 20
398.053560
 30
0.0
 10
103.047800
 20
394.553440
 30
0.0
 10
102.235000
 20
394.553440
 30
0.0
 10
102.235000
 20
389.544560
 30
0.0
 10
103.047800
 20
389.544560
 30
0.0
 10
103.047800
 20
386.044440
 30
0.0
 10
102.235000
 20
386.044440
 30
0.0
 10
102.235000
 20
385.064000
 30
0.0
  0
LWPOLYLINE
  5
15e
100
AcDbEntity
  8
BLACK
 62
1
100
AcDbPolyline
 90
21
 70
0
 10
83.185000
 20
385.064000
 30
0.0
 10
69.215000
 20
385.064000
 30
0.0
 10
69.215000
 20
386.044440
 30
0.0
 10
68.402200
 20
386.044440
 30
0.0
 10
68.402200
 20
389.544560
 30
0.0
 10
69.215000
 20
389.544560
 30
0.0
 10
69.215000
 20
394.553440
 30
0.0
 10
68.402200
 20
394.553440
 30
0.0
 10
68.402200
 20
398.053560
 30
0.0
 10
69.215000
 20
398.053560
 30
0.0
 10
69.215000
 20
399.034000
 30
0.0
 10
83.185000
 20
399.034000
 30
0.0
 10
83.185000
 20
398.053560
 30
0.0
 10
83.997800
 20
398.053560
 30
0.0
 10
83.997800
 20
394.553440
 30
0.0
 10
83.185000
 20
394.553440
 30
0.0
 10
83.185000
 20
389.544560
 30
0.0
 10
83.997800
 20
389.544560
 30
0.0
 10
83.997800
 20
386.044440
 30
0.0
 10
83.185000
 20
386.044440
 30
0.0
 10
83.185000
 20
385.064000
 30
0.0
  0
LWPOLYLINE
  5
15f
100
AcDbEntity
  8
BLACK
 62
1
100
AcDbPolyline
 90
21
 70
0
 10
50.165000
 20
399.034000
 30
0.0
 10
64.135000
 20
399.034000
 30
0.0
 10
64.135000
 20
398.053560
 30
0.0
 10
64.947800
 20
398.053560
 30
0.0
 10
64.947800
 20
394.553440
 30
0.0
 10
64.135000
 20
394.553440
 30
0.0
 10
64.135000
 20
389.544560
 30
0.0
 10
64.947800
 20
389.544560
 30
0.0
 10
64.947800
 20
386.044440
 30
0.0
 10
64.135000
 20
386.044440
 30
0.0
 10
64.135000
 20
385.064000
 30
0.0
 10
50.165000
 20
385.064000
 30
0.0
 10
50.165000
 20
386.044440
 30
0.0
 10
49.352200
 20
386.044440
 30
0.0
 10
49.352200
 20
389.544560
 30
0.0
 10
50.165000
 20
389.544560
 30
0.0
 10
50.165000
 20
394.553440
 30
0.0
 10
49.352200
 20
394.553440
 30
0.0
 10
49.352200
 20
398.053560
 30
0.0
 10
50.165000
 20
398.053560
 30
0.0
 10
50.165000
 20
399.034000
 30
0.0
  0
LWPOLYLINE
  5
160
100
AcDbEntity
  8
BLACK
 62
1
100
AcDbPolyline
 90
21
 70
0
 10
31.115000
 20
399.034000
 30
0.0
 10
45.085000
 20
399.034000
 30
0.0
 10
45.085000
 20
398.053560
 30
0.0
 10
45.897800
 20
398.053560
 30
0.0
 10
45.897800
 20
394.553440
 30
0.0
 10
45.085000
 20
394.553440
 30
0.0
 10
45.085000
 20
389.544560
 30
0.0
 10
45.897800
 20
389.544560
 30
0.0
 10
45.897800
 20
386.044440
 30
0.0
 10
45.085000
 20
386.044440
 30
0.0
 10
45.085000
 20
385.064000
 30
0.0
 10
31.115000
 20
385.064000
 30
0.0
 10
31.115000
 20
386.044440
 30
0.0
 10
30.302200
 20
386.044440
 30
0.0
 10
30.302200
 20
389.544560
 30
0.0
 10
31.115000
 20
389.544560
 30
0.0
 10
31.115000
 20
394.553440
 30
0.0
 10
30.302200
 20
394.553440
 30
0.0
 10
30.302200
 20
398.053560
 30
0.0
 10
31.115000
 20
398.053560
 30
0.0
 10
31.115000
 20
399.034000
 30
0.0
  0
LWPOLYLINE
  5
161
100
AcDbEntity
  8
BLACK
 62
1
100
AcDbPolyline
 90
21
 70
0
 10
12.065000
 20
399.034000
 30
0.0
 10
26.035000
 20
399.034000
 30
0.0
 10
26.035000
 20
398.053560
 30
0.0
 10
26.847800
 20
398.053560
 30
0.0
 10
26.847800
 20
394.553440
 30
0.0
 10
26.035000
 20
394.553440
 30
0.0
 10
26.035000
 20
389.544560
 30
0.0
 10
26.847800
 20
389.544560
 30
0.0
 10
26.847800
 20
386.044440
 30
0.0
 10
26.035000
 20
386.044440
 30
0.0
 10
26.035000
 20
385.064000
 30
0.0
 10
12.065000
 20
385.064000
 30
0.0
 10
12.065000
 20
386.044440
 30
0.0
 10
11.252200
 20
386.044440
 30
0.0
 10
11.252200
 20
389.544560
 30
0.0
 10
12.065000
 20
389.544560
 30
0.0
 10
12.065000
 20
394.553440
 30
0.0
 10
11.252200
 20
394.553440
 30
0.0
 10
11.252200
 20
398.053560
 30
0.0
 10
12.065000
 20
398.053560
 30
0.0
 10
12.065000
 20
399.034000
 30
0.0
  0
LWPOLYLINE
  5
162
100
AcDbEntity
  8
BLACK
 62
1
100
AcDbPolyline
 90
21
 70
0
 10
-6.985000
 20
399.034000
 30
0.0
 10
6.985000
 20
399.034000
 30
0.0
 10
6.985000
 20
398.053560
 30
0.0
 10
7.797800
 20
398.053560
 30
0.0
 10
7.797800
 20
394.553440
 30
0.0
 10
6.985000
 20
394.553440
 30
0.0
 10
6.985000
 20
389.544560
 30
0.0
 10
7.797800
 20
389.544560
 30
0.0
 10
7.797800
 20
386.044440
 30
0.0
 10
6.985000
 20
386.044440
 30
0.0
 10
6.985000
 20
385.064000
 30
0.0
 10
-6.985000
 20
385.064000
 30
0.0
 10
-6.985000
 20
386.044440
 30
0.0
 10
-7.797800
 20
386.044440
 30
0.0
 10
-7.797800
 20
389.544560
 30
0.0
 10
-6.985000
 20
389.544560
 30
0.0
 10
-6.985000
 20
394.553440
 30
0.0
 10
-7.797800
 20
394.553440
 30
0.0
 10
-7.797800
 20
398.053560
 30
0.0
 10
-6.985000
 20
398.053560
 30
0.0
 10
-6.985000
 20
399.034000
 30
0.0
  0
LWPOLYLINE
  5
163
100
AcDbEntity
  8
BLACK
 62
1
100
AcDbPolyline
 90
21
 70
0
 10
16.827500
 20
341.884000
 30
0.0
 10
30.797500
 20
341.884000
 30
0.0
 10
30.797500
 20
340.903560
 30
0.0
 10
31.610300
 20
340.903560
 30
0.0
 10
31.610300
 20
337.403440
 30
0.0
 10
30.797500
 20
337.403440
 30
0.0
 10
30.797500
 20
332.394560
 30
0.0
 10
31.610300
 20
332.394560
 30
0.0
 10
31.610300
 20
328.894440
 30
0.0
 10
30.797500
 20
328.894440
 30
0.0
 10
30.797500
 20
327.914000
 30
0.0
 10
16.827500
 20
327.914000
 30
0.0
 10
16.827500
 20
328.894440
 30
0.0
 10
16.014700
 20
328.894440
 30
0.0
 10
16.014700
 20
332.394560
 30
0.0
 10
16.827500
 20
332.394560
 30
0.0
 10
16.827500
 20
337.403440
 30
0.0
 10
16.014700
 20
337.403440
 30
0.0
 10
16.014700
 20
340.903560
 30
0.0
 10
16.827500
 20
340.903560
 30
0.0
 10
16.827500
 20
341.884000
 30
0.0
  0
LWPOLYLINE
  5
164
100
AcDbEntity
  8
BLACK
 62
1
100
AcDbPolyline
 90
21
 70
0
 10
-4.602480
 20
341.884000
 30
0.0
 10
9.367520
 20
341.884000
 30
0.0
 10
9.367520
 20
340.903560
 30
0.0
 10
10.180320
 20
340.903560
 30
0.0
 10
10.180320
 20
337.403440
 30
0.0
 10
9.367520
 20
337.403440
 30
0.0
 10
9.367520
 20
332.394560
 30
0.0
 10
10.180320
 20
332.394560
 30
0.0
 10
10.180320
 20
328.894440
 30
0.0
 10
9.367520
 20
328.894440
 30
0.0
 10
9.367520
 20
327.914000
 30
0.0
 10
-4.602480
 20
327.914000
 30
0.0
 10
-4.602480
 20
328.894440
 30
0.0
 10
-5.415280
 20
328.894440
 30
0.0
 10
-5.415280
 20
332.394560
 30
0.0
 10
-4.602480
 20
332.394560
 30
0.0
 10
-4.602480
 20
337.403440
 30
0.0
 10
-5.415280
 20
337.403440
 30
0.0
 10
-5.415280
 20
340.903560
 30
0.0
 10
-4.602480
 20
340.903560
 30
0.0
 10
-4.602480
 20
341.884000
 30
0.0
  0
ENDSEC
  0
SECTION
  2
OBJECTS
  0
DICTIONARY
  5
C
330
0
100
AcDbDictionary
  3
ACAD_GROUP
350
D
  3
ACAD_MLINESTYLE
350
17
  0
DICTIONARY
  5
D
330
C
100
AcDbDictionary
  0
DICTIONARY
  5
1A
330
C
100
AcDbDictionary
  0
DICTIONARY
  5
17
330
C
100
AcDbDictionary
  3
STANDARD
350
18
  0
DICTIONARY
  5
19
330
C
100
AcDbDictionary
  0
ENDSEC
  0
EOF
